<?xml version="1.0" encoding="UTF-8" standalone="no"?>
<!DOCTYPE svg PUBLIC "-//W3C//DTD SVG 1.1//EN"
 "http://www.w3.org/Graphics/SVG/1.1/DTD/svg11.dtd">
<!-- Generated by graphviz version 2.43.0 (0)
 -->
<!-- Title: %3 Pages: 1 -->
<svg width="2471pt" height="764pt"
 viewBox="0.00 0.00 2471.00 764.00" xmlns="http://www.w3.org/2000/svg" xmlns:xlink="http://www.w3.org/1999/xlink">
<g id="graph0" class="graph" transform="scale(1 1) rotate(0) translate(4 760)">
<title>%3</title>
<polygon fill="white" stroke="transparent" points="-4,4 -4,-760 2467,-760 2467,4 -4,4"/>
<!-- [root] aws_api_gateway_deployment.deployment (expand) -->
<g id="node1" class="node">
<title>[root] aws_api_gateway_deployment.deployment (expand)</title>
<polygon fill="none" stroke="black" points="663.5,-540 344.5,-540 344.5,-504 663.5,-504 663.5,-540"/>
<text text-anchor="middle" x="504" y="-518.3" font-family="Times,serif" font-size="14.00">aws_api_gateway_deployment.deployment</text>
</g>
<!-- [root] aws_api_gateway_integration_response.integration_response (expand) -->
<g id="node3" class="node">
<title>[root] aws_api_gateway_integration_response.integration_response (expand)</title>
<polygon fill="none" stroke="black" points="653,-468 201,-468 201,-432 653,-432 653,-468"/>
<text text-anchor="middle" x="427" y="-446.3" font-family="Times,serif" font-size="14.00">aws_api_gateway_integration_response.integration_response</text>
</g>
<!-- [root] aws_api_gateway_deployment.deployment (expand)&#45;&gt;[root] aws_api_gateway_integration_response.integration_response (expand) -->
<g id="edge1" class="edge">
<title>[root] aws_api_gateway_deployment.deployment (expand)&#45;&gt;[root] aws_api_gateway_integration_response.integration_response (expand)</title>
<path fill="none" stroke="black" d="M484.97,-503.7C475.46,-495.05 463.79,-484.45 453.43,-475.03"/>
<polygon fill="black" stroke="black" points="455.57,-472.24 445.81,-468.1 450.86,-477.42 455.57,-472.24"/>
</g>
<!-- [root] aws_api_gateway_integration.integration (expand) -->
<g id="node2" class="node">
<title>[root] aws_api_gateway_integration.integration (expand)</title>
<polygon fill="none" stroke="black" points="702,-396 392,-396 392,-360 702,-360 702,-396"/>
<text text-anchor="middle" x="547" y="-374.3" font-family="Times,serif" font-size="14.00">aws_api_gateway_integration.integration</text>
</g>
<!-- [root] aws_api_gateway_method.method (expand) -->
<g id="node4" class="node">
<title>[root] aws_api_gateway_method.method (expand)</title>
<polygon fill="none" stroke="black" points="636.5,-324 377.5,-324 377.5,-288 636.5,-288 636.5,-324"/>
<text text-anchor="middle" x="507" y="-302.3" font-family="Times,serif" font-size="14.00">aws_api_gateway_method.method</text>
</g>
<!-- [root] aws_api_gateway_integration.integration (expand)&#45;&gt;[root] aws_api_gateway_method.method (expand) -->
<g id="edge2" class="edge">
<title>[root] aws_api_gateway_integration.integration (expand)&#45;&gt;[root] aws_api_gateway_method.method (expand)</title>
<path fill="none" stroke="black" d="M537.11,-359.7C532.51,-351.64 526.94,-341.89 521.85,-332.98"/>
<polygon fill="black" stroke="black" points="524.77,-331.05 516.77,-324.1 518.7,-334.52 524.77,-331.05"/>
</g>
<!-- [root] aws_iam_role.apigateway_role (expand) -->
<g id="node12" class="node">
<title>[root] aws_iam_role.apigateway_role (expand)</title>
<polygon fill="none" stroke="black" points="887.5,-324 654.5,-324 654.5,-288 887.5,-288 887.5,-324"/>
<text text-anchor="middle" x="771" y="-302.3" font-family="Times,serif" font-size="14.00">aws_iam_role.apigateway_role</text>
</g>
<!-- [root] aws_api_gateway_integration.integration (expand)&#45;&gt;[root] aws_iam_role.apigateway_role (expand) -->
<g id="edge3" class="edge">
<title>[root] aws_api_gateway_integration.integration (expand)&#45;&gt;[root] aws_iam_role.apigateway_role (expand)</title>
<path fill="none" stroke="black" d="M601.51,-359.97C633.22,-350.06 673.36,-337.51 706.61,-327.12"/>
<polygon fill="black" stroke="black" points="707.74,-330.43 716.25,-324.11 705.66,-323.75 707.74,-330.43"/>
</g>
<!-- [root] aws_sqs_queue.queue (expand) -->
<g id="node22" class="node">
<title>[root] aws_sqs_queue.queue (expand)</title>
<polygon fill="none" stroke="black" points="1304.5,-324 1131.5,-324 1131.5,-288 1304.5,-288 1304.5,-324"/>
<text text-anchor="middle" x="1218" y="-302.3" font-family="Times,serif" font-size="14.00">aws_sqs_queue.queue</text>
</g>
<!-- [root] aws_api_gateway_integration.integration (expand)&#45;&gt;[root] aws_sqs_queue.queue (expand) -->
<g id="edge4" class="edge">
<title>[root] aws_api_gateway_integration.integration (expand)&#45;&gt;[root] aws_sqs_queue.queue (expand)</title>
<path fill="none" stroke="black" d="M702.21,-360.81C831.52,-347.32 1011.68,-328.52 1121.27,-317.09"/>
<polygon fill="black" stroke="black" points="1121.74,-320.56 1131.33,-316.04 1121.02,-313.6 1121.74,-320.56"/>
</g>
<!-- [root] aws_api_gateway_integration_response.integration_response (expand)&#45;&gt;[root] aws_api_gateway_integration.integration (expand) -->
<g id="edge5" class="edge">
<title>[root] aws_api_gateway_integration_response.integration_response (expand)&#45;&gt;[root] aws_api_gateway_integration.integration (expand)</title>
<path fill="none" stroke="black" d="M456.36,-431.88C472.05,-422.72 491.56,-411.34 508.45,-401.48"/>
<polygon fill="black" stroke="black" points="510.66,-404.25 517.53,-396.19 507.13,-398.21 510.66,-404.25"/>
</g>
<!-- [root] aws_api_gateway_method_response.response_200 (expand) -->
<g id="node5" class="node">
<title>[root] aws_api_gateway_method_response.response_200 (expand)</title>
<polygon fill="none" stroke="black" points="374,-396 0,-396 0,-360 374,-360 374,-396"/>
<text text-anchor="middle" x="187" y="-374.3" font-family="Times,serif" font-size="14.00">aws_api_gateway_method_response.response_200</text>
</g>
<!-- [root] aws_api_gateway_integration_response.integration_response (expand)&#45;&gt;[root] aws_api_gateway_method_response.response_200 (expand) -->
<g id="edge6" class="edge">
<title>[root] aws_api_gateway_integration_response.integration_response (expand)&#45;&gt;[root] aws_api_gateway_method_response.response_200 (expand)</title>
<path fill="none" stroke="black" d="M368.6,-431.97C334.48,-422.01 291.25,-409.41 255.53,-398.99"/>
<polygon fill="black" stroke="black" points="256.25,-395.55 245.67,-396.11 254.29,-402.27 256.25,-395.55"/>
</g>
<!-- [root] aws_api_gateway_model.model (expand) -->
<g id="node6" class="node">
<title>[root] aws_api_gateway_model.model (expand)</title>
<polygon fill="none" stroke="black" points="1064,-252 826,-252 826,-216 1064,-216 1064,-252"/>
<text text-anchor="middle" x="945" y="-230.3" font-family="Times,serif" font-size="14.00">aws_api_gateway_model.model</text>
</g>
<!-- [root] aws_api_gateway_method.method (expand)&#45;&gt;[root] aws_api_gateway_model.model (expand) -->
<g id="edge7" class="edge">
<title>[root] aws_api_gateway_method.method (expand)&#45;&gt;[root] aws_api_gateway_model.model (expand)</title>
<path fill="none" stroke="black" d="M613.59,-287.97C678.5,-277.59 761.49,-264.33 828.18,-253.67"/>
<polygon fill="black" stroke="black" points="828.99,-257.08 838.32,-252.05 827.89,-250.17 828.99,-257.08"/>
</g>
<!-- [root] aws_api_gateway_request_validator.validator (expand) -->
<g id="node7" class="node">
<title>[root] aws_api_gateway_request_validator.validator (expand)</title>
<polygon fill="none" stroke="black" points="514,-252 176,-252 176,-216 514,-216 514,-252"/>
<text text-anchor="middle" x="345" y="-230.3" font-family="Times,serif" font-size="14.00">aws_api_gateway_request_validator.validator</text>
</g>
<!-- [root] aws_api_gateway_method.method (expand)&#45;&gt;[root] aws_api_gateway_request_validator.validator (expand) -->
<g id="edge8" class="edge">
<title>[root] aws_api_gateway_method.method (expand)&#45;&gt;[root] aws_api_gateway_request_validator.validator (expand)</title>
<path fill="none" stroke="black" d="M467.37,-287.88C445.22,-278.31 417.44,-266.3 393.94,-256.15"/>
<polygon fill="black" stroke="black" points="395.07,-252.82 384.5,-252.07 392.29,-259.25 395.07,-252.82"/>
</g>
<!-- [root] aws_api_gateway_resource.resource (expand) -->
<g id="node8" class="node">
<title>[root] aws_api_gateway_resource.resource (expand)</title>
<polygon fill="none" stroke="black" points="807.5,-252 532.5,-252 532.5,-216 807.5,-216 807.5,-252"/>
<text text-anchor="middle" x="670" y="-230.3" font-family="Times,serif" font-size="14.00">aws_api_gateway_resource.resource</text>
</g>
<!-- [root] aws_api_gateway_method.method (expand)&#45;&gt;[root] aws_api_gateway_resource.resource (expand) -->
<g id="edge9" class="edge">
<title>[root] aws_api_gateway_method.method (expand)&#45;&gt;[root] aws_api_gateway_resource.resource (expand)</title>
<path fill="none" stroke="black" d="M546.87,-287.88C569.16,-278.31 597.12,-266.3 620.76,-256.15"/>
<polygon fill="black" stroke="black" points="622.45,-259.23 630.26,-252.07 619.69,-252.8 622.45,-259.23"/>
</g>
<!-- [root] aws_api_gateway_method_response.response_200 (expand)&#45;&gt;[root] aws_api_gateway_method.method (expand) -->
<g id="edge10" class="edge">
<title>[root] aws_api_gateway_method_response.response_200 (expand)&#45;&gt;[root] aws_api_gateway_method.method (expand)</title>
<path fill="none" stroke="black" d="M264.87,-359.97C311.52,-349.76 370.94,-336.76 419.24,-326.2"/>
<polygon fill="black" stroke="black" points="420.04,-329.61 429.06,-324.05 418.54,-322.77 420.04,-329.61"/>
</g>
<!-- [root] aws_api_gateway_rest_api.api (expand) -->
<g id="node9" class="node">
<title>[root] aws_api_gateway_rest_api.api (expand)</title>
<polygon fill="none" stroke="black" points="923,-180 693,-180 693,-144 923,-144 923,-180"/>
<text text-anchor="middle" x="808" y="-158.3" font-family="Times,serif" font-size="14.00">aws_api_gateway_rest_api.api</text>
</g>
<!-- [root] aws_api_gateway_model.model (expand)&#45;&gt;[root] aws_api_gateway_rest_api.api (expand) -->
<g id="edge11" class="edge">
<title>[root] aws_api_gateway_model.model (expand)&#45;&gt;[root] aws_api_gateway_rest_api.api (expand)</title>
<path fill="none" stroke="black" d="M911.49,-215.88C893.16,-206.51 870.26,-194.81 850.67,-184.8"/>
<polygon fill="black" stroke="black" points="852.14,-181.62 841.64,-180.19 848.96,-187.86 852.14,-181.62"/>
</g>
<!-- [root] aws_api_gateway_request_validator.validator (expand)&#45;&gt;[root] aws_api_gateway_rest_api.api (expand) -->
<g id="edge12" class="edge">
<title>[root] aws_api_gateway_request_validator.validator (expand)&#45;&gt;[root] aws_api_gateway_rest_api.api (expand)</title>
<path fill="none" stroke="black" d="M457.67,-215.97C526.43,-205.57 614.37,-192.27 684.94,-181.6"/>
<polygon fill="black" stroke="black" points="685.86,-185.01 695.23,-180.05 684.82,-178.08 685.86,-185.01"/>
</g>
<!-- [root] aws_api_gateway_resource.resource (expand)&#45;&gt;[root] aws_api_gateway_rest_api.api (expand) -->
<g id="edge13" class="edge">
<title>[root] aws_api_gateway_resource.resource (expand)&#45;&gt;[root] aws_api_gateway_rest_api.api (expand)</title>
<path fill="none" stroke="black" d="M703.76,-215.88C722.22,-206.51 745.28,-194.81 765.02,-184.8"/>
<polygon fill="black" stroke="black" points="766.78,-187.83 774.11,-180.19 763.61,-181.59 766.78,-187.83"/>
</g>
<!-- [root] provider[&quot;registry.terraform.io/hashicorp/aws&quot;] -->
<g id="node25" class="node">
<title>[root] provider[&quot;registry.terraform.io/hashicorp/aws&quot;]</title>
<polygon fill="none" stroke="black" points="1444,-108 1118.74,-90 1444,-72 1769.26,-90 1444,-108"/>
<text text-anchor="middle" x="1444" y="-86.3" font-family="Times,serif" font-size="14.00">provider[&quot;registry.terraform.io/hashicorp/aws&quot;]</text>
</g>
<!-- [root] aws_api_gateway_rest_api.api (expand)&#45;&gt;[root] provider[&quot;registry.terraform.io/hashicorp/aws&quot;] -->
<g id="edge14" class="edge">
<title>[root] aws_api_gateway_rest_api.api (expand)&#45;&gt;[root] provider[&quot;registry.terraform.io/hashicorp/aws&quot;]</title>
<path fill="none" stroke="black" d="M923.17,-148.32C1038.8,-135.6 1215.82,-116.11 1330.75,-103.46"/>
<polygon fill="black" stroke="black" points="1331.43,-106.91 1340.99,-102.34 1330.66,-99.95 1331.43,-106.91"/>
</g>
<!-- [root] aws_api_gateway_stage.stage (expand) -->
<g id="node10" class="node">
<title>[root] aws_api_gateway_stage.stage (expand)</title>
<polygon fill="none" stroke="black" points="750.5,-612 521.5,-612 521.5,-576 750.5,-576 750.5,-612"/>
<text text-anchor="middle" x="636" y="-590.3" font-family="Times,serif" font-size="14.00">aws_api_gateway_stage.stage</text>
</g>
<!-- [root] aws_api_gateway_stage.stage (expand)&#45;&gt;[root] aws_api_gateway_deployment.deployment (expand) -->
<g id="edge15" class="edge">
<title>[root] aws_api_gateway_stage.stage (expand)&#45;&gt;[root] aws_api_gateway_deployment.deployment (expand)</title>
<path fill="none" stroke="black" d="M603.71,-575.88C586.13,-566.55 564.19,-554.92 545.37,-544.94"/>
<polygon fill="black" stroke="black" points="546.89,-541.78 536.41,-540.19 543.61,-547.97 546.89,-541.78"/>
</g>
<!-- [root] aws_iam_policy.sqs_policy (expand) -->
<g id="node11" class="node">
<title>[root] aws_iam_policy.sqs_policy (expand)</title>
<polygon fill="none" stroke="black" points="959.5,-396 758.5,-396 758.5,-360 959.5,-360 959.5,-396"/>
<text text-anchor="middle" x="859" y="-374.3" font-family="Times,serif" font-size="14.00">aws_iam_policy.sqs_policy</text>
</g>
<!-- [root] aws_iam_policy.sqs_policy (expand)&#45;&gt;[root] aws_sqs_queue.queue (expand) -->
<g id="edge16" class="edge">
<title>[root] aws_iam_policy.sqs_policy (expand)&#45;&gt;[root] aws_sqs_queue.queue (expand)</title>
<path fill="none" stroke="black" d="M946.36,-359.97C999.31,-349.64 1066.94,-336.45 1121.47,-325.82"/>
<polygon fill="black" stroke="black" points="1122.35,-329.22 1131.49,-323.87 1121.01,-322.35 1122.35,-329.22"/>
</g>
<!-- [root] aws_iam_role.apigateway_role (expand)&#45;&gt;[root] provider[&quot;registry.terraform.io/hashicorp/aws&quot;] -->
<g id="edge17" class="edge">
<title>[root] aws_iam_role.apigateway_role (expand)&#45;&gt;[root] provider[&quot;registry.terraform.io/hashicorp/aws&quot;]</title>
<path fill="none" stroke="black" d="M887.57,-291.09C944.27,-282.67 1012.97,-270.02 1073,-252 1198.95,-214.2 1339.18,-145.53 1405.39,-111.4"/>
<polygon fill="black" stroke="black" points="1407.34,-114.33 1414.61,-106.62 1404.12,-108.11 1407.34,-114.33"/>
</g>
<!-- [root] aws_iam_role.iam_role_for_lambda (expand) -->
<g id="node13" class="node">
<title>[root] aws_iam_role.iam_role_for_lambda (expand)</title>
<polygon fill="none" stroke="black" points="2108.5,-468 1845.5,-468 1845.5,-432 2108.5,-432 2108.5,-468"/>
<text text-anchor="middle" x="1977" y="-446.3" font-family="Times,serif" font-size="14.00">aws_iam_role.iam_role_for_lambda</text>
</g>
<!-- [root] aws_iam_role.iam_role_for_lambda (expand)&#45;&gt;[root] provider[&quot;registry.terraform.io/hashicorp/aws&quot;] -->
<g id="edge18" class="edge">
<title>[root] aws_iam_role.iam_role_for_lambda (expand)&#45;&gt;[root] provider[&quot;registry.terraform.io/hashicorp/aws&quot;]</title>
<path fill="none" stroke="black" d="M1957.25,-431.91C1931.03,-407.21 1888,-358.79 1888,-307 1888,-307 1888,-307 1888,-233 1888,-173.5 1841.83,-169.35 1788,-144 1749.89,-126.05 1651.24,-111.93 1569.31,-102.8"/>
<polygon fill="black" stroke="black" points="1569.47,-99.29 1559.15,-101.68 1568.71,-106.25 1569.47,-99.29"/>
</g>
<!-- [root] aws_iam_role_policy_attachment.apigateway_policy_attachment (expand) -->
<g id="node14" class="node">
<title>[root] aws_iam_role_policy_attachment.apigateway_policy_attachment (expand)</title>
<polygon fill="none" stroke="black" points="1144.5,-468 671.5,-468 671.5,-432 1144.5,-432 1144.5,-468"/>
<text text-anchor="middle" x="908" y="-446.3" font-family="Times,serif" font-size="14.00">aws_iam_role_policy_attachment.apigateway_policy_attachment</text>
</g>
<!-- [root] aws_iam_role_policy_attachment.apigateway_policy_attachment (expand)&#45;&gt;[root] aws_iam_policy.sqs_policy (expand) -->
<g id="edge19" class="edge">
<title>[root] aws_iam_role_policy_attachment.apigateway_policy_attachment (expand)&#45;&gt;[root] aws_iam_policy.sqs_policy (expand)</title>
<path fill="none" stroke="black" d="M895.89,-431.7C890.13,-423.47 883.14,-413.48 876.79,-404.42"/>
<polygon fill="black" stroke="black" points="879.58,-402.29 870.97,-396.1 873.84,-406.3 879.58,-402.29"/>
</g>
<!-- [root] aws_iam_role_policy_attachment.apigateway_policy_attachment (expand)&#45;&gt;[root] aws_iam_role.apigateway_role (expand) -->
<g id="edge20" class="edge">
<title>[root] aws_iam_role_policy_attachment.apigateway_policy_attachment (expand)&#45;&gt;[root] aws_iam_role.apigateway_role (expand)</title>
<path fill="none" stroke="black" d="M798.11,-431.93C779.24,-424.02 761.91,-412.56 750,-396 736.84,-377.7 744.74,-352.31 754.39,-333.34"/>
<polygon fill="black" stroke="black" points="757.59,-334.78 759.33,-324.33 751.45,-331.41 757.59,-334.78"/>
</g>
<!-- [root] aws_iam_role_policy_attachment.lambda_sns_role_policy (expand) -->
<g id="node15" class="node">
<title>[root] aws_iam_role_policy_attachment.lambda_sns_role_policy (expand)</title>
<polygon fill="none" stroke="black" points="2226,-540 1806,-540 1806,-504 2226,-504 2226,-540"/>
<text text-anchor="middle" x="2016" y="-518.3" font-family="Times,serif" font-size="14.00">aws_iam_role_policy_attachment.lambda_sns_role_policy</text>
</g>
<!-- [root] aws_iam_role_policy_attachment.lambda_sns_role_policy (expand)&#45;&gt;[root] aws_iam_role.iam_role_for_lambda (expand) -->
<g id="edge21" class="edge">
<title>[root] aws_iam_role_policy_attachment.lambda_sns_role_policy (expand)&#45;&gt;[root] aws_iam_role.iam_role_for_lambda (expand)</title>
<path fill="none" stroke="black" d="M2006.36,-503.7C2001.87,-495.64 1996.44,-485.89 1991.48,-476.98"/>
<polygon fill="black" stroke="black" points="1994.45,-475.14 1986.53,-468.1 1988.34,-478.54 1994.45,-475.14"/>
</g>
<!-- [root] aws_iam_role_policy_attachment.lambda_sqs_role_policy (expand) -->
<g id="node16" class="node">
<title>[root] aws_iam_role_policy_attachment.lambda_sqs_role_policy (expand)</title>
<polygon fill="none" stroke="black" points="2463,-612 2043,-612 2043,-576 2463,-576 2463,-612"/>
<text text-anchor="middle" x="2253" y="-590.3" font-family="Times,serif" font-size="14.00">aws_iam_role_policy_attachment.lambda_sqs_role_policy</text>
</g>
<!-- [root] aws_iam_role_policy_attachment.lambda_sqs_role_policy (expand)&#45;&gt;[root] aws_iam_role.iam_role_for_lambda (expand) -->
<g id="edge22" class="edge">
<title>[root] aws_iam_role_policy_attachment.lambda_sqs_role_policy (expand)&#45;&gt;[root] aws_iam_role.iam_role_for_lambda (expand)</title>
<path fill="none" stroke="black" d="M2254.69,-575.69C2255.63,-555.61 2253.81,-522.87 2235,-504 2217.6,-486.54 2169.09,-474.39 2118.77,-466.17"/>
<polygon fill="black" stroke="black" points="2119.11,-462.68 2108.69,-464.58 2118.02,-469.59 2119.11,-462.68"/>
</g>
<!-- [root] aws_lambda_event_source_mapping.sqs_event (expand) -->
<g id="node17" class="node">
<title>[root] aws_lambda_event_source_mapping.sqs_event (expand)</title>
<polygon fill="none" stroke="black" points="1563,-612 1215,-612 1215,-576 1563,-576 1563,-612"/>
<text text-anchor="middle" x="1389" y="-590.3" font-family="Times,serif" font-size="14.00">aws_lambda_event_source_mapping.sqs_event</text>
</g>
<!-- [root] aws_lambda_function.function (expand) -->
<g id="node18" class="node">
<title>[root] aws_lambda_function.function (expand)</title>
<polygon fill="none" stroke="black" points="1712,-540 1480,-540 1480,-504 1712,-504 1712,-540"/>
<text text-anchor="middle" x="1596" y="-518.3" font-family="Times,serif" font-size="14.00">aws_lambda_function.function</text>
</g>
<!-- [root] aws_lambda_event_source_mapping.sqs_event (expand)&#45;&gt;[root] aws_lambda_function.function (expand) -->
<g id="edge23" class="edge">
<title>[root] aws_lambda_event_source_mapping.sqs_event (expand)&#45;&gt;[root] aws_lambda_function.function (expand)</title>
<path fill="none" stroke="black" d="M1439.37,-575.97C1468.42,-566.14 1505.13,-553.73 1535.71,-543.39"/>
<polygon fill="black" stroke="black" points="1537.05,-546.63 1545.4,-540.11 1534.81,-540 1537.05,-546.63"/>
</g>
<!-- [root] aws_lambda_event_source_mapping.sqs_event (expand)&#45;&gt;[root] aws_sqs_queue.queue (expand) -->
<g id="edge24" class="edge">
<title>[root] aws_lambda_event_source_mapping.sqs_event (expand)&#45;&gt;[root] aws_sqs_queue.queue (expand)</title>
<path fill="none" stroke="black" d="M1401.7,-575.9C1416.66,-556.61 1443.04,-525.2 1471,-504 1561.76,-435.18 1758.84,-444.98 1683,-360 1658.95,-333.05 1443.98,-317.97 1314.91,-311.27"/>
<polygon fill="black" stroke="black" points="1314.78,-307.76 1304.62,-310.75 1314.42,-314.75 1314.78,-307.76"/>
</g>
<!-- [root] aws_lambda_function.function (expand)&#45;&gt;[root] aws_iam_role.iam_role_for_lambda (expand) -->
<g id="edge25" class="edge">
<title>[root] aws_lambda_function.function (expand)&#45;&gt;[root] aws_iam_role.iam_role_for_lambda (expand)</title>
<path fill="none" stroke="black" d="M1688.72,-503.97C1744.83,-493.66 1816.48,-480.49 1874.31,-469.87"/>
<polygon fill="black" stroke="black" points="1875,-473.3 1884.2,-468.05 1873.73,-466.41 1875,-473.3"/>
</g>
<!-- [root] data.archive_file.lambda_code (expand) -->
<g id="node23" class="node">
<title>[root] data.archive_file.lambda_code (expand)</title>
<polygon fill="none" stroke="black" points="1441,-468 1211,-468 1211,-432 1441,-432 1441,-468"/>
<text text-anchor="middle" x="1326" y="-446.3" font-family="Times,serif" font-size="14.00">data.archive_file.lambda_code</text>
</g>
<!-- [root] aws_lambda_function.function (expand)&#45;&gt;[root] data.archive_file.lambda_code (expand) -->
<g id="edge26" class="edge">
<title>[root] aws_lambda_function.function (expand)&#45;&gt;[root] data.archive_file.lambda_code (expand)</title>
<path fill="none" stroke="black" d="M1530.3,-503.97C1491.5,-493.91 1442.24,-481.14 1401.81,-470.65"/>
<polygon fill="black" stroke="black" points="1402.56,-467.23 1392,-468.11 1400.8,-474.01 1402.56,-467.23"/>
</g>
<!-- [root] aws_lambda_function_event_invoke_config.sns_invoke (expand) -->
<g id="node19" class="node">
<title>[root] aws_lambda_function_event_invoke_config.sns_invoke (expand)</title>
<polygon fill="none" stroke="black" points="1981,-612 1581,-612 1581,-576 1981,-576 1981,-612"/>
<text text-anchor="middle" x="1781" y="-590.3" font-family="Times,serif" font-size="14.00">aws_lambda_function_event_invoke_config.sns_invoke</text>
</g>
<!-- [root] aws_lambda_function_event_invoke_config.sns_invoke (expand)&#45;&gt;[root] aws_lambda_function.function (expand) -->
<g id="edge27" class="edge">
<title>[root] aws_lambda_function_event_invoke_config.sns_invoke (expand)&#45;&gt;[root] aws_lambda_function.function (expand)</title>
<path fill="none" stroke="black" d="M1735.74,-575.88C1710,-566.14 1677.59,-553.87 1650.46,-543.61"/>
<polygon fill="black" stroke="black" points="1651.7,-540.33 1641.11,-540.07 1649.22,-546.88 1651.7,-540.33"/>
</g>
<!-- [root] aws_sns_topic.sns (expand) -->
<g id="node20" class="node">
<title>[root] aws_sns_topic.sns (expand)</title>
<polygon fill="none" stroke="black" points="1779,-180 1633,-180 1633,-144 1779,-144 1779,-180"/>
<text text-anchor="middle" x="1706" y="-158.3" font-family="Times,serif" font-size="14.00">aws_sns_topic.sns</text>
</g>
<!-- [root] aws_lambda_function_event_invoke_config.sns_invoke (expand)&#45;&gt;[root] aws_sns_topic.sns (expand) -->
<g id="edge28" class="edge">
<title>[root] aws_lambda_function_event_invoke_config.sns_invoke (expand)&#45;&gt;[root] aws_sns_topic.sns (expand)</title>
<path fill="none" stroke="black" d="M1780.41,-575.95C1779.53,-549.3 1778,-496.12 1778,-451 1778,-451 1778,-451 1778,-305 1778,-260.35 1749.34,-215.52 1728.18,-188.51"/>
<polygon fill="black" stroke="black" points="1730.63,-185.96 1721.62,-180.38 1725.18,-190.36 1730.63,-185.96"/>
</g>
<!-- [root] aws_sqs_queue.dead_letter_queue (expand) -->
<g id="node21" class="node">
<title>[root] aws_sqs_queue.dead_letter_queue (expand)</title>
<polygon fill="none" stroke="black" points="1574.5,-252 1313.5,-252 1313.5,-216 1574.5,-216 1574.5,-252"/>
<text text-anchor="middle" x="1444" y="-230.3" font-family="Times,serif" font-size="14.00">aws_sqs_queue.dead_letter_queue</text>
</g>
<!-- [root] aws_lambda_function_event_invoke_config.sns_invoke (expand)&#45;&gt;[root] aws_sqs_queue.dead_letter_queue (expand) -->
<g id="edge29" class="edge">
<title>[root] aws_lambda_function_event_invoke_config.sns_invoke (expand)&#45;&gt;[root] aws_sqs_queue.dead_letter_queue (expand)</title>
<path fill="none" stroke="black" d="M1772.7,-575.97C1760.72,-549.77 1740,-497.7 1740,-451 1740,-451 1740,-451 1740,-377 1740,-301.72 1661.22,-266.32 1584.94,-249.69"/>
<polygon fill="black" stroke="black" points="1585.19,-246.17 1574.69,-247.56 1583.77,-253.02 1585.19,-246.17"/>
</g>
<!-- [root] aws_sns_topic.sns (expand)&#45;&gt;[root] provider[&quot;registry.terraform.io/hashicorp/aws&quot;] -->
<g id="edge30" class="edge">
<title>[root] aws_sns_topic.sns (expand)&#45;&gt;[root] provider[&quot;registry.terraform.io/hashicorp/aws&quot;]</title>
<path fill="none" stroke="black" d="M1642.24,-143.97C1601.1,-132.97 1547.82,-118.74 1506.86,-107.79"/>
<polygon fill="black" stroke="black" points="1507.56,-104.36 1496.99,-105.16 1505.75,-111.12 1507.56,-104.36"/>
</g>
<!-- [root] aws_sqs_queue.dead_letter_queue (expand)&#45;&gt;[root] provider[&quot;registry.terraform.io/hashicorp/aws&quot;] -->
<g id="edge31" class="edge">
<title>[root] aws_sqs_queue.dead_letter_queue (expand)&#45;&gt;[root] provider[&quot;registry.terraform.io/hashicorp/aws&quot;]</title>
<path fill="none" stroke="black" d="M1444,-215.87C1444,-191.67 1444,-147.21 1444,-118.39"/>
<polygon fill="black" stroke="black" points="1447.5,-118.19 1444,-108.19 1440.5,-118.19 1447.5,-118.19"/>
</g>
<!-- [root] aws_sqs_queue.queue (expand)&#45;&gt;[root] aws_sqs_queue.dead_letter_queue (expand) -->
<g id="edge32" class="edge">
<title>[root] aws_sqs_queue.queue (expand)&#45;&gt;[root] aws_sqs_queue.dead_letter_queue (expand)</title>
<path fill="none" stroke="black" d="M1273,-287.97C1304.99,-278.06 1345.48,-265.51 1379.04,-255.12"/>
<polygon fill="black" stroke="black" points="1380.24,-258.41 1388.76,-252.11 1378.17,-251.73 1380.24,-258.41"/>
</g>
<!-- [root] provider[&quot;registry.terraform.io/hashicorp/archive&quot;] -->
<g id="node24" class="node">
<title>[root] provider[&quot;registry.terraform.io/hashicorp/archive&quot;]</title>
<polygon fill="none" stroke="black" points="1326,-396 977.78,-378 1326,-360 1674.22,-378 1326,-396"/>
<text text-anchor="middle" x="1326" y="-374.3" font-family="Times,serif" font-size="14.00">provider[&quot;registry.terraform.io/hashicorp/archive&quot;]</text>
</g>
<!-- [root] data.archive_file.lambda_code (expand)&#45;&gt;[root] provider[&quot;registry.terraform.io/hashicorp/archive&quot;] -->
<g id="edge33" class="edge">
<title>[root] data.archive_file.lambda_code (expand)&#45;&gt;[root] provider[&quot;registry.terraform.io/hashicorp/archive&quot;]</title>
<path fill="none" stroke="black" d="M1326,-431.7C1326,-423.98 1326,-414.71 1326,-406.11"/>
<polygon fill="black" stroke="black" points="1329.5,-406.1 1326,-396.1 1322.5,-406.1 1329.5,-406.1"/>
</g>
<!-- [root] var.aws_region -->
<g id="node26" class="node">
<title>[root] var.aws_region</title>
<polygon fill="none" stroke="black" points="1437.5,-36 1320.5,-36 1320.5,0 1443.5,0 1443.5,-30 1437.5,-36"/>
<polyline fill="none" stroke="black" points="1437.5,-36 1437.5,-30 "/>
<polyline fill="none" stroke="black" points="1443.5,-30 1437.5,-30 "/>
<text text-anchor="middle" x="1382" y="-14.3" font-family="Times,serif" font-size="14.00">var.aws_region</text>
</g>
<!-- [root] provider[&quot;registry.terraform.io/hashicorp/aws&quot;]&#45;&gt;[root] var.aws_region -->
<g id="edge42" class="edge">
<title>[root] provider[&quot;registry.terraform.io/hashicorp/aws&quot;]&#45;&gt;[root] var.aws_region</title>
<path fill="none" stroke="black" d="M1429.62,-72.76C1422.02,-64.18 1412.52,-53.46 1404.02,-43.86"/>
<polygon fill="black" stroke="black" points="1406.42,-41.29 1397.17,-36.12 1401.18,-45.93 1406.42,-41.29"/>
</g>
<!-- [root] var.profile -->
<g id="node27" class="node">
<title>[root] var.profile</title>
<polygon fill="none" stroke="black" points="1544.5,-36 1461.5,-36 1461.5,0 1550.5,0 1550.5,-30 1544.5,-36"/>
<polyline fill="none" stroke="black" points="1544.5,-36 1544.5,-30 "/>
<polyline fill="none" stroke="black" points="1550.5,-30 1544.5,-30 "/>
<text text-anchor="middle" x="1506" y="-14.3" font-family="Times,serif" font-size="14.00">var.profile</text>
</g>
<!-- [root] provider[&quot;registry.terraform.io/hashicorp/aws&quot;]&#45;&gt;[root] var.profile -->
<g id="edge43" class="edge">
<title>[root] provider[&quot;registry.terraform.io/hashicorp/aws&quot;]&#45;&gt;[root] var.profile</title>
<path fill="none" stroke="black" d="M1458.38,-72.76C1465.98,-64.18 1475.48,-53.46 1483.98,-43.86"/>
<polygon fill="black" stroke="black" points="1486.82,-45.93 1490.83,-36.12 1481.58,-41.29 1486.82,-45.93"/>
</g>
<!-- [root] output.apigateway_url (expand) -->
<g id="node28" class="node">
<title>[root] output.apigateway_url (expand)</title>
<ellipse fill="none" stroke="black" cx="636" cy="-666" rx="187.37" ry="18"/>
<text text-anchor="middle" x="636" y="-662.3" font-family="Times,serif" font-size="14.00">[root] output.apigateway_url (expand)</text>
</g>
<!-- [root] output.apigateway_url (expand)&#45;&gt;[root] aws_api_gateway_stage.stage (expand) -->
<g id="edge34" class="edge">
<title>[root] output.apigateway_url (expand)&#45;&gt;[root] aws_api_gateway_stage.stage (expand)</title>
<path fill="none" stroke="black" d="M636,-647.7C636,-639.98 636,-630.71 636,-622.11"/>
<polygon fill="black" stroke="black" points="639.5,-622.1 636,-612.1 632.5,-622.1 639.5,-622.1"/>
</g>
<!-- [root] provider[&quot;registry.terraform.io/hashicorp/archive&quot;] (close) -->
<g id="node29" class="node">
<title>[root] provider[&quot;registry.terraform.io/hashicorp/archive&quot;] (close)</title>
<ellipse fill="none" stroke="black" cx="1149" cy="-666" rx="308.15" ry="18"/>
<text text-anchor="middle" x="1149" y="-662.3" font-family="Times,serif" font-size="14.00">[root] provider[&quot;registry.terraform.io/hashicorp/archive&quot;] (close)</text>
</g>
<!-- [root] provider[&quot;registry.terraform.io/hashicorp/archive&quot;] (close)&#45;&gt;[root] data.archive_file.lambda_code (expand) -->
<g id="edge35" class="edge">
<title>[root] provider[&quot;registry.terraform.io/hashicorp/archive&quot;] (close)&#45;&gt;[root] data.archive_file.lambda_code (expand)</title>
<path fill="none" stroke="black" d="M1158.58,-647.94C1169.22,-629.51 1187.38,-599.64 1206,-576 1235.53,-538.52 1274.52,-499.51 1299.93,-475.24"/>
<polygon fill="black" stroke="black" points="1302.5,-477.62 1307.35,-468.2 1297.68,-472.55 1302.5,-477.62"/>
</g>
<!-- [root] provider[&quot;registry.terraform.io/hashicorp/aws&quot;] (close) -->
<g id="node30" class="node">
<title>[root] provider[&quot;registry.terraform.io/hashicorp/aws&quot;] (close)</title>
<ellipse fill="none" stroke="black" cx="1767" cy="-666" rx="291.65" ry="18"/>
<text text-anchor="middle" x="1767" y="-662.3" font-family="Times,serif" font-size="14.00">[root] provider[&quot;registry.terraform.io/hashicorp/aws&quot;] (close)</text>
</g>
<!-- [root] provider[&quot;registry.terraform.io/hashicorp/aws&quot;] (close)&#45;&gt;[root] aws_api_gateway_stage.stage (expand) -->
<g id="edge36" class="edge">
<title>[root] provider[&quot;registry.terraform.io/hashicorp/aws&quot;] (close)&#45;&gt;[root] aws_api_gateway_stage.stage (expand)</title>
<path fill="none" stroke="black" d="M1569.02,-652.75C1336.04,-638.33 956.22,-614.82 760.82,-602.73"/>
<polygon fill="black" stroke="black" points="760.99,-599.23 750.79,-602.1 760.56,-606.22 760.99,-599.23"/>
</g>
<!-- [root] provider[&quot;registry.terraform.io/hashicorp/aws&quot;] (close)&#45;&gt;[root] aws_iam_role_policy_attachment.apigateway_policy_attachment (expand) -->
<g id="edge37" class="edge">
<title>[root] provider[&quot;registry.terraform.io/hashicorp/aws&quot;] (close)&#45;&gt;[root] aws_iam_role_policy_attachment.apigateway_policy_attachment (expand)</title>
<path fill="none" stroke="black" d="M1554,-653.67C1423.44,-645.03 1269.54,-631.29 1206,-612 1101.8,-580.36 992.41,-510.25 939.87,-473.88"/>
<polygon fill="black" stroke="black" points="941.84,-470.98 931.63,-468.13 937.83,-476.72 941.84,-470.98"/>
</g>
<!-- [root] provider[&quot;registry.terraform.io/hashicorp/aws&quot;] (close)&#45;&gt;[root] aws_iam_role_policy_attachment.lambda_sns_role_policy (expand) -->
<g id="edge38" class="edge">
<title>[root] provider[&quot;registry.terraform.io/hashicorp/aws&quot;] (close)&#45;&gt;[root] aws_iam_role_policy_attachment.lambda_sns_role_policy (expand)</title>
<path fill="none" stroke="black" d="M1877.61,-649.33C1924.89,-640.54 1973.09,-628.07 1990,-612 2006.81,-596.02 2012.94,-569.83 2015.08,-549.99"/>
<polygon fill="black" stroke="black" points="2018.57,-550.25 2015.88,-540 2011.59,-549.69 2018.57,-550.25"/>
</g>
<!-- [root] provider[&quot;registry.terraform.io/hashicorp/aws&quot;] (close)&#45;&gt;[root] aws_iam_role_policy_attachment.lambda_sqs_role_policy (expand) -->
<g id="edge39" class="edge">
<title>[root] provider[&quot;registry.terraform.io/hashicorp/aws&quot;] (close)&#45;&gt;[root] aws_iam_role_policy_attachment.lambda_sqs_role_policy (expand)</title>
<path fill="none" stroke="black" d="M1876.07,-649.29C1949.72,-638.68 2047.25,-624.63 2124.65,-613.49"/>
<polygon fill="black" stroke="black" points="2125.55,-616.89 2134.95,-612 2124.55,-609.96 2125.55,-616.89"/>
</g>
<!-- [root] provider[&quot;registry.terraform.io/hashicorp/aws&quot;] (close)&#45;&gt;[root] aws_lambda_event_source_mapping.sqs_event (expand) -->
<g id="edge40" class="edge">
<title>[root] provider[&quot;registry.terraform.io/hashicorp/aws&quot;] (close)&#45;&gt;[root] aws_lambda_event_source_mapping.sqs_event (expand)</title>
<path fill="none" stroke="black" d="M1679.33,-648.76C1623.05,-638.34 1549.74,-624.77 1490.87,-613.86"/>
<polygon fill="black" stroke="black" points="1491.27,-610.38 1480.8,-612 1490,-617.26 1491.27,-610.38"/>
</g>
<!-- [root] provider[&quot;registry.terraform.io/hashicorp/aws&quot;] (close)&#45;&gt;[root] aws_lambda_function_event_invoke_config.sns_invoke (expand) -->
<g id="edge41" class="edge">
<title>[root] provider[&quot;registry.terraform.io/hashicorp/aws&quot;] (close)&#45;&gt;[root] aws_lambda_function_event_invoke_config.sns_invoke (expand)</title>
<path fill="none" stroke="black" d="M1770.46,-647.7C1772,-639.98 1773.86,-630.71 1775.58,-622.11"/>
<polygon fill="black" stroke="black" points="1779.05,-622.6 1777.58,-612.1 1772.19,-621.22 1779.05,-622.6"/>
</g>
<!-- [root] root -->
<g id="node31" class="node">
<title>[root] root</title>
<ellipse fill="none" stroke="black" cx="1149" cy="-738" rx="58.49" ry="18"/>
<text text-anchor="middle" x="1149" y="-734.3" font-family="Times,serif" font-size="14.00">[root] root</text>
</g>
<!-- [root] root&#45;&gt;[root] output.apigateway_url (expand) -->
<g id="edge44" class="edge">
<title>[root] root&#45;&gt;[root] output.apigateway_url (expand)</title>
<path fill="none" stroke="black" d="M1096.51,-729.84C1015.29,-718.75 857.26,-697.19 749.2,-682.45"/>
<polygon fill="black" stroke="black" points="749.61,-678.97 739.23,-681.09 748.66,-685.91 749.61,-678.97"/>
</g>
<!-- [root] root&#45;&gt;[root] provider[&quot;registry.terraform.io/hashicorp/archive&quot;] (close) -->
<g id="edge45" class="edge">
<title>[root] root&#45;&gt;[root] provider[&quot;registry.terraform.io/hashicorp/archive&quot;] (close)</title>
<path fill="none" stroke="black" d="M1149,-719.7C1149,-711.98 1149,-702.71 1149,-694.11"/>
<polygon fill="black" stroke="black" points="1152.5,-694.1 1149,-684.1 1145.5,-694.1 1152.5,-694.1"/>
</g>
<!-- [root] root&#45;&gt;[root] provider[&quot;registry.terraform.io/hashicorp/aws&quot;] (close) -->
<g id="edge46" class="edge">
<title>[root] root&#45;&gt;[root] provider[&quot;registry.terraform.io/hashicorp/aws&quot;] (close)</title>
<path fill="none" stroke="black" d="M1203.03,-730.88C1296.21,-720.33 1490.02,-698.37 1624.24,-683.17"/>
<polygon fill="black" stroke="black" points="1624.66,-686.65 1634.2,-682.04 1623.87,-679.69 1624.66,-686.65"/>
</g>
</g>
</svg>
