<?xml version="1.0" encoding="UTF-8" standalone="no"?>
<!DOCTYPE svg PUBLIC "-//W3C//DTD SVG 1.1//EN"
 "http://www.w3.org/Graphics/SVG/1.1/DTD/svg11.dtd">
<!-- Generated by graphviz version 2.43.0 (0)
 -->
<!-- Title: %3 Pages: 1 -->
<svg width="1456pt" height="764pt"
 viewBox="0.00 0.00 1455.50 764.00" xmlns="http://www.w3.org/2000/svg" xmlns:xlink="http://www.w3.org/1999/xlink">
<g id="graph0" class="graph" transform="scale(1 1) rotate(0) translate(4 760)">
<title>%3</title>
<polygon fill="white" stroke="transparent" points="-4,4 -4,-760 1451.5,-760 1451.5,4 -4,4"/>
<!-- [root] aws_api_gateway_deployment.deployment -->
<g id="node1" class="node">
<title>[root] aws_api_gateway_deployment.deployment</title>
<polygon fill="none" stroke="black" points="960.5,-252 641.5,-252 641.5,-216 960.5,-216 960.5,-252"/>
<text text-anchor="middle" x="801" y="-230.3" font-family="Times,serif" font-size="14.00">aws_api_gateway_deployment.deployment</text>
</g>
<!-- [root] aws_api_gateway_stage.stage -->
<g id="node10" class="node">
<title>[root] aws_api_gateway_stage.stage</title>
<polygon fill="none" stroke="black" points="1049.5,-180 820.5,-180 820.5,-144 1049.5,-144 1049.5,-180"/>
<text text-anchor="middle" x="935" y="-158.3" font-family="Times,serif" font-size="14.00">aws_api_gateway_stage.stage</text>
</g>
<!-- [root] aws_api_gateway_deployment.deployment&#45;&gt;[root] aws_api_gateway_stage.stage -->
<g id="edge1" class="edge">
<title>[root] aws_api_gateway_deployment.deployment&#45;&gt;[root] aws_api_gateway_stage.stage</title>
<path fill="none" stroke="black" d="M833.78,-215.88C851.63,-206.55 873.9,-194.92 893,-184.94"/>
<polygon fill="black" stroke="black" points="894.85,-187.92 902.09,-180.19 891.61,-181.72 894.85,-187.92"/>
</g>
<!-- [root] aws_api_gateway_integration.integration -->
<g id="node2" class="node">
<title>[root] aws_api_gateway_integration.integration</title>
<polygon fill="none" stroke="black" points="956,-396 646,-396 646,-360 956,-360 956,-396"/>
<text text-anchor="middle" x="801" y="-374.3" font-family="Times,serif" font-size="14.00">aws_api_gateway_integration.integration</text>
</g>
<!-- [root] aws_api_gateway_integration.integration&#45;&gt;[root] aws_api_gateway_deployment.deployment -->
<g id="edge2" class="edge">
<title>[root] aws_api_gateway_integration.integration&#45;&gt;[root] aws_api_gateway_deployment.deployment</title>
<path fill="none" stroke="black" d="M801,-359.87C801,-335.67 801,-291.21 801,-262.39"/>
<polygon fill="black" stroke="black" points="804.5,-262.19 801,-252.19 797.5,-262.19 804.5,-262.19"/>
</g>
<!-- [root] aws_api_gateway_integration_response.integration_response -->
<g id="node3" class="node">
<title>[root] aws_api_gateway_integration_response.integration_response</title>
<polygon fill="none" stroke="black" points="720,-324 268,-324 268,-288 720,-288 720,-324"/>
<text text-anchor="middle" x="494" y="-302.3" font-family="Times,serif" font-size="14.00">aws_api_gateway_integration_response.integration_response</text>
</g>
<!-- [root] aws_api_gateway_integration_response.integration_response&#45;&gt;[root] aws_api_gateway_deployment.deployment -->
<g id="edge3" class="edge">
<title>[root] aws_api_gateway_integration_response.integration_response&#45;&gt;[root] aws_api_gateway_deployment.deployment</title>
<path fill="none" stroke="black" d="M568.71,-287.97C613.27,-277.8 669.99,-264.87 716.22,-254.33"/>
<polygon fill="black" stroke="black" points="717.25,-257.69 726.22,-252.05 715.7,-250.86 717.25,-257.69"/>
</g>
<!-- [root] aws_api_gateway_method.method -->
<g id="node4" class="node">
<title>[root] aws_api_gateway_method.method</title>
<polygon fill="none" stroke="black" points="570.5,-468 311.5,-468 311.5,-432 570.5,-432 570.5,-468"/>
<text text-anchor="middle" x="441" y="-446.3" font-family="Times,serif" font-size="14.00">aws_api_gateway_method.method</text>
</g>
<!-- [root] aws_api_gateway_method.method&#45;&gt;[root] aws_api_gateway_integration.integration -->
<g id="edge4" class="edge">
<title>[root] aws_api_gateway_method.method&#45;&gt;[root] aws_api_gateway_integration.integration</title>
<path fill="none" stroke="black" d="M528.61,-431.97C581.41,-421.7 648.77,-408.6 703.29,-398"/>
<polygon fill="black" stroke="black" points="704.17,-401.39 713.31,-396.05 702.83,-394.52 704.17,-401.39"/>
</g>
<!-- [root] aws_api_gateway_method_response.response_200 -->
<g id="node5" class="node">
<title>[root] aws_api_gateway_method_response.response_200</title>
<polygon fill="none" stroke="black" points="628,-396 254,-396 254,-360 628,-360 628,-396"/>
<text text-anchor="middle" x="441" y="-374.3" font-family="Times,serif" font-size="14.00">aws_api_gateway_method_response.response_200</text>
</g>
<!-- [root] aws_api_gateway_method.method&#45;&gt;[root] aws_api_gateway_method_response.response_200 -->
<g id="edge5" class="edge">
<title>[root] aws_api_gateway_method.method&#45;&gt;[root] aws_api_gateway_method_response.response_200</title>
<path fill="none" stroke="black" d="M441,-431.7C441,-423.98 441,-414.71 441,-406.11"/>
<polygon fill="black" stroke="black" points="444.5,-406.1 441,-396.1 437.5,-406.1 444.5,-406.1"/>
</g>
<!-- [root] aws_api_gateway_method_response.response_200&#45;&gt;[root] aws_api_gateway_integration_response.integration_response -->
<g id="edge6" class="edge">
<title>[root] aws_api_gateway_method_response.response_200&#45;&gt;[root] aws_api_gateway_integration_response.integration_response</title>
<path fill="none" stroke="black" d="M454.1,-359.7C460.39,-351.39 468.05,-341.28 474.96,-332.14"/>
<polygon fill="black" stroke="black" points="477.8,-334.19 481.05,-324.1 472.22,-329.96 477.8,-334.19"/>
</g>
<!-- [root] aws_api_gateway_model.model -->
<g id="node6" class="node">
<title>[root] aws_api_gateway_model.model</title>
<polygon fill="none" stroke="black" points="238,-540 0,-540 0,-504 238,-504 238,-540"/>
<text text-anchor="middle" x="119" y="-518.3" font-family="Times,serif" font-size="14.00">aws_api_gateway_model.model</text>
</g>
<!-- [root] aws_api_gateway_model.model&#45;&gt;[root] aws_api_gateway_method.method -->
<g id="edge7" class="edge">
<title>[root] aws_api_gateway_model.model&#45;&gt;[root] aws_api_gateway_method.method</title>
<path fill="none" stroke="black" d="M197.36,-503.97C244.29,-493.76 304.09,-480.76 352.69,-470.2"/>
<polygon fill="black" stroke="black" points="353.54,-473.59 362.57,-468.05 352.05,-466.75 353.54,-473.59"/>
</g>
<!-- [root] aws_api_gateway_request_validator.validator -->
<g id="node7" class="node">
<title>[root] aws_api_gateway_request_validator.validator</title>
<polygon fill="none" stroke="black" points="594,-540 256,-540 256,-504 594,-504 594,-540"/>
<text text-anchor="middle" x="425" y="-518.3" font-family="Times,serif" font-size="14.00">aws_api_gateway_request_validator.validator</text>
</g>
<!-- [root] aws_api_gateway_request_validator.validator&#45;&gt;[root] aws_api_gateway_method.method -->
<g id="edge8" class="edge">
<title>[root] aws_api_gateway_request_validator.validator&#45;&gt;[root] aws_api_gateway_method.method</title>
<path fill="none" stroke="black" d="M428.96,-503.7C430.72,-495.98 432.84,-486.71 434.8,-478.11"/>
<polygon fill="black" stroke="black" points="438.27,-478.63 437.09,-468.1 431.45,-477.07 438.27,-478.63"/>
</g>
<!-- [root] aws_api_gateway_resource.resource -->
<g id="node8" class="node">
<title>[root] aws_api_gateway_resource.resource</title>
<polygon fill="none" stroke="black" points="887.5,-540 612.5,-540 612.5,-504 887.5,-504 887.5,-540"/>
<text text-anchor="middle" x="750" y="-518.3" font-family="Times,serif" font-size="14.00">aws_api_gateway_resource.resource</text>
</g>
<!-- [root] aws_api_gateway_resource.resource&#45;&gt;[root] aws_api_gateway_method.method -->
<g id="edge9" class="edge">
<title>[root] aws_api_gateway_resource.resource&#45;&gt;[root] aws_api_gateway_method.method</title>
<path fill="none" stroke="black" d="M674.81,-503.97C629.86,-493.78 572.63,-480.82 526.04,-470.26"/>
<polygon fill="black" stroke="black" points="526.79,-466.85 516.26,-468.05 525.24,-473.67 526.79,-466.85"/>
</g>
<!-- [root] aws_api_gateway_rest_api.api -->
<g id="node9" class="node">
<title>[root] aws_api_gateway_rest_api.api</title>
<polygon fill="none" stroke="black" points="703,-612 473,-612 473,-576 703,-576 703,-612"/>
<text text-anchor="middle" x="588" y="-590.3" font-family="Times,serif" font-size="14.00">aws_api_gateway_rest_api.api</text>
</g>
<!-- [root] aws_api_gateway_rest_api.api&#45;&gt;[root] aws_api_gateway_model.model -->
<g id="edge10" class="edge">
<title>[root] aws_api_gateway_rest_api.api&#45;&gt;[root] aws_api_gateway_model.model</title>
<path fill="none" stroke="black" d="M473.87,-575.97C404.08,-565.55 314.77,-552.22 243.21,-541.54"/>
<polygon fill="black" stroke="black" points="243.64,-538.06 233.24,-540.05 242.61,-544.99 243.64,-538.06"/>
</g>
<!-- [root] aws_api_gateway_rest_api.api&#45;&gt;[root] aws_api_gateway_request_validator.validator -->
<g id="edge11" class="edge">
<title>[root] aws_api_gateway_rest_api.api&#45;&gt;[root] aws_api_gateway_request_validator.validator</title>
<path fill="none" stroke="black" d="M548.13,-575.88C525.84,-566.31 497.88,-554.3 474.24,-544.15"/>
<polygon fill="black" stroke="black" points="475.31,-540.8 464.74,-540.07 472.55,-547.23 475.31,-540.8"/>
</g>
<!-- [root] aws_api_gateway_rest_api.api&#45;&gt;[root] aws_api_gateway_resource.resource -->
<g id="edge12" class="edge">
<title>[root] aws_api_gateway_rest_api.api&#45;&gt;[root] aws_api_gateway_resource.resource</title>
<path fill="none" stroke="black" d="M627.63,-575.88C649.78,-566.31 677.56,-554.3 701.06,-544.15"/>
<polygon fill="black" stroke="black" points="702.71,-547.25 710.5,-540.07 699.93,-540.82 702.71,-547.25"/>
</g>
<!-- [root] provider[&quot;registry.terraform.io/hashicorp/aws&quot;] -->
<g id="node15" class="node">
<title>[root] provider[&quot;registry.terraform.io/hashicorp/aws&quot;]</title>
<polygon fill="none" stroke="black" points="1006,-108 680.74,-90 1006,-72 1331.26,-90 1006,-108"/>
<text text-anchor="middle" x="1006" y="-86.3" font-family="Times,serif" font-size="14.00">provider[&quot;registry.terraform.io/hashicorp/aws&quot;]</text>
</g>
<!-- [root] aws_api_gateway_stage.stage&#45;&gt;[root] provider[&quot;registry.terraform.io/hashicorp/aws&quot;] -->
<g id="edge13" class="edge">
<title>[root] aws_api_gateway_stage.stage&#45;&gt;[root] provider[&quot;registry.terraform.io/hashicorp/aws&quot;]</title>
<path fill="none" stroke="black" d="M952.55,-143.7C961.58,-134.79 972.72,-123.81 982.48,-114.19"/>
<polygon fill="black" stroke="black" points="984.96,-116.66 989.62,-107.14 980.05,-111.67 984.96,-116.66"/>
</g>
<!-- [root] aws_iam_policy.sqs_policy -->
<g id="node11" class="node">
<title>[root] aws_iam_policy.sqs_policy</title>
<polygon fill="none" stroke="black" points="1076.5,-468 875.5,-468 875.5,-432 1076.5,-432 1076.5,-468"/>
<text text-anchor="middle" x="976" y="-446.3" font-family="Times,serif" font-size="14.00">aws_iam_policy.sqs_policy</text>
</g>
<!-- [root] aws_iam_role_policy_attachment.apigateway_policy_attachment -->
<g id="node13" class="node">
<title>[root] aws_iam_role_policy_attachment.apigateway_policy_attachment</title>
<polygon fill="none" stroke="black" points="1447.5,-396 974.5,-396 974.5,-360 1447.5,-360 1447.5,-396"/>
<text text-anchor="middle" x="1211" y="-374.3" font-family="Times,serif" font-size="14.00">aws_iam_role_policy_attachment.apigateway_policy_attachment</text>
</g>
<!-- [root] aws_iam_policy.sqs_policy&#45;&gt;[root] aws_iam_role_policy_attachment.apigateway_policy_attachment -->
<g id="edge14" class="edge">
<title>[root] aws_iam_policy.sqs_policy&#45;&gt;[root] aws_iam_role_policy_attachment.apigateway_policy_attachment</title>
<path fill="none" stroke="black" d="M1033.19,-431.97C1066.59,-422.01 1108.92,-409.41 1143.9,-398.99"/>
<polygon fill="black" stroke="black" points="1144.97,-402.32 1153.56,-396.11 1142.97,-395.61 1144.97,-402.32"/>
</g>
<!-- [root] aws_iam_role.apigateway_role -->
<g id="node12" class="node">
<title>[root] aws_iam_role.apigateway_role</title>
<polygon fill="none" stroke="black" points="1327.5,-468 1094.5,-468 1094.5,-432 1327.5,-432 1327.5,-468"/>
<text text-anchor="middle" x="1211" y="-446.3" font-family="Times,serif" font-size="14.00">aws_iam_role.apigateway_role</text>
</g>
<!-- [root] aws_iam_role.apigateway_role&#45;&gt;[root] aws_api_gateway_integration.integration -->
<g id="edge15" class="edge">
<title>[root] aws_iam_role.apigateway_role&#45;&gt;[root] aws_api_gateway_integration.integration</title>
<path fill="none" stroke="black" d="M1111.23,-431.97C1050.59,-421.61 973.1,-408.38 910.74,-397.74"/>
<polygon fill="black" stroke="black" points="911.31,-394.28 900.86,-396.05 910.13,-401.18 911.31,-394.28"/>
</g>
<!-- [root] aws_iam_role.apigateway_role&#45;&gt;[root] aws_iam_role_policy_attachment.apigateway_policy_attachment -->
<g id="edge16" class="edge">
<title>[root] aws_iam_role.apigateway_role&#45;&gt;[root] aws_iam_role_policy_attachment.apigateway_policy_attachment</title>
<path fill="none" stroke="black" d="M1211,-431.7C1211,-423.98 1211,-414.71 1211,-406.11"/>
<polygon fill="black" stroke="black" points="1214.5,-406.1 1211,-396.1 1207.5,-406.1 1214.5,-406.1"/>
</g>
<!-- [root] aws_iam_role_policy_attachment.apigateway_policy_attachment&#45;&gt;[root] provider[&quot;registry.terraform.io/hashicorp/aws&quot;] -->
<g id="edge17" class="edge">
<title>[root] aws_iam_role_policy_attachment.apigateway_policy_attachment&#45;&gt;[root] provider[&quot;registry.terraform.io/hashicorp/aws&quot;]</title>
<path fill="none" stroke="black" d="M1201.3,-359.84C1178.55,-320.18 1119.05,-219.73 1058,-144 1049.78,-133.81 1039.9,-123.36 1030.97,-114.46"/>
<polygon fill="black" stroke="black" points="1033.34,-111.89 1023.75,-107.4 1028.45,-116.89 1033.34,-111.89"/>
</g>
<!-- [root] aws_sqs_queue.queue -->
<g id="node14" class="node">
<title>[root] aws_sqs_queue.queue</title>
<polygon fill="none" stroke="black" points="1078.5,-540 905.5,-540 905.5,-504 1078.5,-504 1078.5,-540"/>
<text text-anchor="middle" x="992" y="-518.3" font-family="Times,serif" font-size="14.00">aws_sqs_queue.queue</text>
</g>
<!-- [root] aws_sqs_queue.queue&#45;&gt;[root] aws_api_gateway_integration.integration -->
<g id="edge18" class="edge">
<title>[root] aws_sqs_queue.queue&#45;&gt;[root] aws_api_gateway_integration.integration</title>
<path fill="none" stroke="black" d="M933.56,-503.92C910.96,-495.48 885.82,-483.68 866,-468 844.23,-450.79 826.27,-424.51 814.78,-404.97"/>
<polygon fill="black" stroke="black" points="817.81,-403.21 809.82,-396.25 811.73,-406.67 817.81,-403.21"/>
</g>
<!-- [root] aws_sqs_queue.queue&#45;&gt;[root] aws_iam_policy.sqs_policy -->
<g id="edge19" class="edge">
<title>[root] aws_sqs_queue.queue&#45;&gt;[root] aws_iam_policy.sqs_policy</title>
<path fill="none" stroke="black" d="M988.04,-503.7C986.28,-495.98 984.16,-486.71 982.2,-478.11"/>
<polygon fill="black" stroke="black" points="985.55,-477.07 979.91,-468.1 978.73,-478.63 985.55,-477.07"/>
</g>
<!-- [root] var.profile -->
<g id="node16" class="node">
<title>[root] var.profile</title>
<polygon fill="none" stroke="black" points="991.5,-36 908.5,-36 908.5,0 997.5,0 997.5,-30 991.5,-36"/>
<polyline fill="none" stroke="black" points="991.5,-36 991.5,-30 "/>
<polyline fill="none" stroke="black" points="997.5,-30 991.5,-30 "/>
<text text-anchor="middle" x="953" y="-14.3" font-family="Times,serif" font-size="14.00">var.profile</text>
</g>
<!-- [root] provider[&quot;registry.terraform.io/hashicorp/aws&quot;]&#45;&gt;[root] var.profile -->
<g id="edge23" class="edge">
<title>[root] provider[&quot;registry.terraform.io/hashicorp/aws&quot;]&#45;&gt;[root] var.profile</title>
<path fill="none" stroke="black" d="M993.44,-72.41C987.16,-64.12 979.42,-53.89 972.39,-44.62"/>
<polygon fill="black" stroke="black" points="975.04,-42.31 966.21,-36.45 969.46,-46.53 975.04,-42.31"/>
</g>
<!-- [root] var.region -->
<g id="node17" class="node">
<title>[root] var.region</title>
<polygon fill="none" stroke="black" points="1098.5,-36 1015.5,-36 1015.5,0 1104.5,0 1104.5,-30 1098.5,-36"/>
<polyline fill="none" stroke="black" points="1098.5,-36 1098.5,-30 "/>
<polyline fill="none" stroke="black" points="1104.5,-30 1098.5,-30 "/>
<text text-anchor="middle" x="1060" y="-14.3" font-family="Times,serif" font-size="14.00">var.region</text>
</g>
<!-- [root] provider[&quot;registry.terraform.io/hashicorp/aws&quot;]&#45;&gt;[root] var.region -->
<g id="edge24" class="edge">
<title>[root] provider[&quot;registry.terraform.io/hashicorp/aws&quot;]&#45;&gt;[root] var.region</title>
<path fill="none" stroke="black" d="M1018.8,-72.41C1025.2,-64.12 1033.08,-53.89 1040.24,-44.62"/>
<polygon fill="black" stroke="black" points="1043.2,-46.5 1046.54,-36.45 1037.66,-42.23 1043.2,-46.5"/>
</g>
<!-- [root] provider[&quot;registry.terraform.io/hashicorp/aws&quot;] (close) -->
<g id="node18" class="node">
<title>[root] provider[&quot;registry.terraform.io/hashicorp/aws&quot;] (close)</title>
<ellipse fill="none" stroke="black" cx="992" cy="-666" rx="291.65" ry="18"/>
<text text-anchor="middle" x="992" y="-662.3" font-family="Times,serif" font-size="14.00">[root] provider[&quot;registry.terraform.io/hashicorp/aws&quot;] (close)</text>
</g>
<!-- [root] provider[&quot;registry.terraform.io/hashicorp/aws&quot;] (close)&#45;&gt;[root] aws_api_gateway_rest_api.api -->
<g id="edge20" class="edge">
<title>[root] provider[&quot;registry.terraform.io/hashicorp/aws&quot;] (close)&#45;&gt;[root] aws_api_gateway_rest_api.api</title>
<path fill="none" stroke="black" d="M899.06,-648.9C838.57,-638.42 759.45,-624.71 696.14,-613.74"/>
<polygon fill="black" stroke="black" points="696.58,-610.26 686.13,-612 695.38,-617.16 696.58,-610.26"/>
</g>
<!-- [root] provider[&quot;registry.terraform.io/hashicorp/aws&quot;] (close)&#45;&gt;[root] aws_iam_role.apigateway_role -->
<g id="edge21" class="edge">
<title>[root] provider[&quot;registry.terraform.io/hashicorp/aws&quot;] (close)&#45;&gt;[root] aws_iam_role.apigateway_role</title>
<path fill="none" stroke="black" d="M1009.55,-647.85C1048.31,-609.97 1141.33,-519.08 1186.1,-475.33"/>
<polygon fill="black" stroke="black" points="1188.66,-477.72 1193.36,-468.23 1183.77,-472.72 1188.66,-477.72"/>
</g>
<!-- [root] provider[&quot;registry.terraform.io/hashicorp/aws&quot;] (close)&#45;&gt;[root] aws_sqs_queue.queue -->
<g id="edge22" class="edge">
<title>[root] provider[&quot;registry.terraform.io/hashicorp/aws&quot;] (close)&#45;&gt;[root] aws_sqs_queue.queue</title>
<path fill="none" stroke="black" d="M992,-647.87C992,-623.67 992,-579.21 992,-550.39"/>
<polygon fill="black" stroke="black" points="995.5,-550.19 992,-540.19 988.5,-550.19 995.5,-550.19"/>
</g>
<!-- [root] root -->
<g id="node19" class="node">
<title>[root] root</title>
<ellipse fill="none" stroke="black" cx="992" cy="-738" rx="58.49" ry="18"/>
<text text-anchor="middle" x="992" y="-734.3" font-family="Times,serif" font-size="14.00">[root] root</text>
</g>
<!-- [root] root&#45;&gt;[root] provider[&quot;registry.terraform.io/hashicorp/aws&quot;] (close) -->
<g id="edge25" class="edge">
<title>[root] root&#45;&gt;[root] provider[&quot;registry.terraform.io/hashicorp/aws&quot;] (close)</title>
<path fill="none" stroke="black" d="M992,-719.7C992,-711.98 992,-702.71 992,-694.11"/>
<polygon fill="black" stroke="black" points="995.5,-694.1 992,-684.1 988.5,-694.1 995.5,-694.1"/>
</g>
</g>
</svg>
