<?xml version="1.0" encoding="UTF-8" standalone="no"?>
<!DOCTYPE svg PUBLIC "-//W3C//DTD SVG 1.1//EN"
 "http://www.w3.org/Graphics/SVG/1.1/DTD/svg11.dtd">
<!-- Generated by graphviz version 2.43.0 (0)
 -->
<!-- Title: %3 Pages: 1 -->
<svg width="1829pt" height="764pt"
 viewBox="0.00 0.00 1829.36 764.00" xmlns="http://www.w3.org/2000/svg" xmlns:xlink="http://www.w3.org/1999/xlink">
<g id="graph0" class="graph" transform="scale(1 1) rotate(0) translate(4 760)">
<title>%3</title>
<polygon fill="white" stroke="transparent" points="-4,4 -4,-760 1825.36,-760 1825.36,4 -4,4"/>
<!-- [root] aws_api_gateway_deployment.deployment (expand) -->
<g id="node1" class="node">
<title>[root] aws_api_gateway_deployment.deployment (expand)</title>
<polygon fill="none" stroke="black" points="563.5,-540 244.5,-540 244.5,-504 563.5,-504 563.5,-540"/>
<text text-anchor="middle" x="404" y="-518.3" font-family="Times,serif" font-size="14.00">aws_api_gateway_deployment.deployment</text>
</g>
<!-- [root] aws_api_gateway_integration_response.integration_response (expand) -->
<g id="node3" class="node">
<title>[root] aws_api_gateway_integration_response.integration_response (expand)</title>
<polygon fill="none" stroke="black" points="577,-468 125,-468 125,-432 577,-432 577,-468"/>
<text text-anchor="middle" x="351" y="-446.3" font-family="Times,serif" font-size="14.00">aws_api_gateway_integration_response.integration_response</text>
</g>
<!-- [root] aws_api_gateway_deployment.deployment (expand)&#45;&gt;[root] aws_api_gateway_integration_response.integration_response (expand) -->
<g id="edge1" class="edge">
<title>[root] aws_api_gateway_deployment.deployment (expand)&#45;&gt;[root] aws_api_gateway_integration_response.integration_response (expand)</title>
<path fill="none" stroke="black" d="M390.9,-503.7C384.61,-495.39 376.95,-485.28 370.04,-476.14"/>
<polygon fill="black" stroke="black" points="372.78,-473.96 363.95,-468.1 367.2,-478.19 372.78,-473.96"/>
</g>
<!-- [root] aws_api_gateway_integration.integration (expand) -->
<g id="node2" class="node">
<title>[root] aws_api_gateway_integration.integration (expand)</title>
<polygon fill="none" stroke="black" points="801,-396 491,-396 491,-360 801,-360 801,-396"/>
<text text-anchor="middle" x="646" y="-374.3" font-family="Times,serif" font-size="14.00">aws_api_gateway_integration.integration</text>
</g>
<!-- [root] aws_api_gateway_method.method (expand) -->
<g id="node4" class="node">
<title>[root] aws_api_gateway_method.method (expand)</title>
<polygon fill="none" stroke="black" points="554.5,-324 295.5,-324 295.5,-288 554.5,-288 554.5,-324"/>
<text text-anchor="middle" x="425" y="-302.3" font-family="Times,serif" font-size="14.00">aws_api_gateway_method.method</text>
</g>
<!-- [root] aws_api_gateway_integration.integration (expand)&#45;&gt;[root] aws_api_gateway_method.method (expand) -->
<g id="edge2" class="edge">
<title>[root] aws_api_gateway_integration.integration (expand)&#45;&gt;[root] aws_api_gateway_method.method (expand)</title>
<path fill="none" stroke="black" d="M592.22,-359.97C561.07,-350.1 521.68,-337.62 488.95,-327.25"/>
<polygon fill="black" stroke="black" points="489.61,-323.79 479.02,-324.11 487.5,-330.47 489.61,-323.79"/>
</g>
<!-- [root] aws_iam_role.apigateway_role (expand) -->
<g id="node12" class="node">
<title>[root] aws_iam_role.apigateway_role (expand)</title>
<polygon fill="none" stroke="black" points="851.5,-324 618.5,-324 618.5,-288 851.5,-288 851.5,-324"/>
<text text-anchor="middle" x="735" y="-302.3" font-family="Times,serif" font-size="14.00">aws_iam_role.apigateway_role</text>
</g>
<!-- [root] aws_api_gateway_integration.integration (expand)&#45;&gt;[root] aws_iam_role.apigateway_role (expand) -->
<g id="edge3" class="edge">
<title>[root] aws_api_gateway_integration.integration (expand)&#45;&gt;[root] aws_iam_role.apigateway_role (expand)</title>
<path fill="none" stroke="black" d="M668,-359.7C679.21,-350.88 693,-340.03 705.15,-330.47"/>
<polygon fill="black" stroke="black" points="707.56,-333.04 713.25,-324.1 703.23,-327.54 707.56,-333.04"/>
</g>
<!-- [root] aws_sqs_queue.queue (expand) -->
<g id="node16" class="node">
<title>[root] aws_sqs_queue.queue (expand)</title>
<polygon fill="none" stroke="black" points="1042.5,-324 869.5,-324 869.5,-288 1042.5,-288 1042.5,-324"/>
<text text-anchor="middle" x="956" y="-302.3" font-family="Times,serif" font-size="14.00">aws_sqs_queue.queue</text>
</g>
<!-- [root] aws_api_gateway_integration.integration (expand)&#45;&gt;[root] aws_sqs_queue.queue (expand) -->
<g id="edge4" class="edge">
<title>[root] aws_api_gateway_integration.integration (expand)&#45;&gt;[root] aws_sqs_queue.queue (expand)</title>
<path fill="none" stroke="black" d="M721.44,-359.97C766.53,-349.78 823.95,-336.82 870.69,-326.26"/>
<polygon fill="black" stroke="black" points="871.51,-329.67 880.49,-324.05 869.97,-322.84 871.51,-329.67"/>
</g>
<!-- [root] aws_api_gateway_integration_response.integration_response (expand)&#45;&gt;[root] aws_api_gateway_integration.integration (expand) -->
<g id="edge5" class="edge">
<title>[root] aws_api_gateway_integration_response.integration_response (expand)&#45;&gt;[root] aws_api_gateway_integration.integration (expand)</title>
<path fill="none" stroke="black" d="M422.79,-431.97C465.52,-421.83 519.88,-408.93 564.26,-398.4"/>
<polygon fill="black" stroke="black" points="565.22,-401.76 574.15,-396.05 563.61,-394.95 565.22,-401.76"/>
</g>
<!-- [root] aws_api_gateway_method_response.response_200 (expand) -->
<g id="node5" class="node">
<title>[root] aws_api_gateway_method_response.response_200 (expand)</title>
<polygon fill="none" stroke="black" points="473,-396 99,-396 99,-360 473,-360 473,-396"/>
<text text-anchor="middle" x="286" y="-374.3" font-family="Times,serif" font-size="14.00">aws_api_gateway_method_response.response_200</text>
</g>
<!-- [root] aws_api_gateway_integration_response.integration_response (expand)&#45;&gt;[root] aws_api_gateway_method_response.response_200 (expand) -->
<g id="edge6" class="edge">
<title>[root] aws_api_gateway_integration_response.integration_response (expand)&#45;&gt;[root] aws_api_gateway_method_response.response_200 (expand)</title>
<path fill="none" stroke="black" d="M334.93,-431.7C327.06,-423.22 317.44,-412.86 308.83,-403.58"/>
<polygon fill="black" stroke="black" points="311.25,-401.05 301.88,-396.1 306.12,-405.81 311.25,-401.05"/>
</g>
<!-- [root] aws_api_gateway_model.model (expand) -->
<g id="node6" class="node">
<title>[root] aws_api_gateway_model.model (expand)</title>
<polygon fill="none" stroke="black" points="238,-252 0,-252 0,-216 238,-216 238,-252"/>
<text text-anchor="middle" x="119" y="-230.3" font-family="Times,serif" font-size="14.00">aws_api_gateway_model.model</text>
</g>
<!-- [root] aws_api_gateway_method.method (expand)&#45;&gt;[root] aws_api_gateway_model.model (expand) -->
<g id="edge7" class="edge">
<title>[root] aws_api_gateway_method.method (expand)&#45;&gt;[root] aws_api_gateway_model.model (expand)</title>
<path fill="none" stroke="black" d="M350.54,-287.97C306.12,-277.8 249.58,-264.87 203.5,-254.33"/>
<polygon fill="black" stroke="black" points="204.06,-250.87 193.53,-252.05 202.5,-257.69 204.06,-250.87"/>
</g>
<!-- [root] aws_api_gateway_request_validator.validator (expand) -->
<g id="node7" class="node">
<title>[root] aws_api_gateway_request_validator.validator (expand)</title>
<polygon fill="none" stroke="black" points="594,-252 256,-252 256,-216 594,-216 594,-252"/>
<text text-anchor="middle" x="425" y="-230.3" font-family="Times,serif" font-size="14.00">aws_api_gateway_request_validator.validator</text>
</g>
<!-- [root] aws_api_gateway_method.method (expand)&#45;&gt;[root] aws_api_gateway_request_validator.validator (expand) -->
<g id="edge8" class="edge">
<title>[root] aws_api_gateway_method.method (expand)&#45;&gt;[root] aws_api_gateway_request_validator.validator (expand)</title>
<path fill="none" stroke="black" d="M425,-287.7C425,-279.98 425,-270.71 425,-262.11"/>
<polygon fill="black" stroke="black" points="428.5,-262.1 425,-252.1 421.5,-262.1 428.5,-262.1"/>
</g>
<!-- [root] aws_api_gateway_resource.resource (expand) -->
<g id="node8" class="node">
<title>[root] aws_api_gateway_resource.resource (expand)</title>
<polygon fill="none" stroke="black" points="887.5,-252 612.5,-252 612.5,-216 887.5,-216 887.5,-252"/>
<text text-anchor="middle" x="750" y="-230.3" font-family="Times,serif" font-size="14.00">aws_api_gateway_resource.resource</text>
</g>
<!-- [root] aws_api_gateway_method.method (expand)&#45;&gt;[root] aws_api_gateway_resource.resource (expand) -->
<g id="edge9" class="edge">
<title>[root] aws_api_gateway_method.method (expand)&#45;&gt;[root] aws_api_gateway_resource.resource (expand)</title>
<path fill="none" stroke="black" d="M504.09,-287.97C551.46,-277.76 611.81,-264.76 660.87,-254.2"/>
<polygon fill="black" stroke="black" points="661.8,-257.58 670.84,-252.05 660.33,-250.73 661.8,-257.58"/>
</g>
<!-- [root] aws_api_gateway_method_response.response_200 (expand)&#45;&gt;[root] aws_api_gateway_method.method (expand) -->
<g id="edge10" class="edge">
<title>[root] aws_api_gateway_method_response.response_200 (expand)&#45;&gt;[root] aws_api_gateway_method.method (expand)</title>
<path fill="none" stroke="black" d="M320,-359.88C338.6,-350.51 361.83,-338.81 381.71,-328.8"/>
<polygon fill="black" stroke="black" points="383.51,-331.81 390.87,-324.19 380.36,-325.56 383.51,-331.81"/>
</g>
<!-- [root] aws_api_gateway_rest_api.api (expand) -->
<g id="node9" class="node">
<title>[root] aws_api_gateway_rest_api.api (expand)</title>
<polygon fill="none" stroke="black" points="703,-180 473,-180 473,-144 703,-144 703,-180"/>
<text text-anchor="middle" x="588" y="-158.3" font-family="Times,serif" font-size="14.00">aws_api_gateway_rest_api.api</text>
</g>
<!-- [root] aws_api_gateway_model.model (expand)&#45;&gt;[root] aws_api_gateway_rest_api.api (expand) -->
<g id="edge11" class="edge">
<title>[root] aws_api_gateway_model.model (expand)&#45;&gt;[root] aws_api_gateway_rest_api.api (expand)</title>
<path fill="none" stroke="black" d="M233.13,-215.97C302.92,-205.55 392.23,-192.22 463.79,-181.54"/>
<polygon fill="black" stroke="black" points="464.39,-184.99 473.76,-180.05 463.36,-178.06 464.39,-184.99"/>
</g>
<!-- [root] aws_api_gateway_request_validator.validator (expand)&#45;&gt;[root] aws_api_gateway_rest_api.api (expand) -->
<g id="edge12" class="edge">
<title>[root] aws_api_gateway_request_validator.validator (expand)&#45;&gt;[root] aws_api_gateway_rest_api.api (expand)</title>
<path fill="none" stroke="black" d="M464.87,-215.88C487.16,-206.31 515.12,-194.3 538.76,-184.15"/>
<polygon fill="black" stroke="black" points="540.45,-187.23 548.26,-180.07 537.69,-180.8 540.45,-187.23"/>
</g>
<!-- [root] aws_api_gateway_resource.resource (expand)&#45;&gt;[root] aws_api_gateway_rest_api.api (expand) -->
<g id="edge13" class="edge">
<title>[root] aws_api_gateway_resource.resource (expand)&#45;&gt;[root] aws_api_gateway_rest_api.api (expand)</title>
<path fill="none" stroke="black" d="M710.37,-215.88C688.22,-206.31 660.44,-194.3 636.94,-184.15"/>
<polygon fill="black" stroke="black" points="638.07,-180.82 627.5,-180.07 635.29,-187.25 638.07,-180.82"/>
</g>
<!-- [root] provider[&quot;registry.terraform.io/hashicorp/aws&quot;] -->
<g id="node19" class="node">
<title>[root] provider[&quot;registry.terraform.io/hashicorp/aws&quot;]</title>
<polygon fill="none" stroke="black" points="935,-108 609.74,-90 935,-72 1260.26,-90 935,-108"/>
<text text-anchor="middle" x="935" y="-86.3" font-family="Times,serif" font-size="14.00">provider[&quot;registry.terraform.io/hashicorp/aws&quot;]</text>
</g>
<!-- [root] aws_api_gateway_rest_api.api (expand)&#45;&gt;[root] provider[&quot;registry.terraform.io/hashicorp/aws&quot;] -->
<g id="edge14" class="edge">
<title>[root] aws_api_gateway_rest_api.api (expand)&#45;&gt;[root] provider[&quot;registry.terraform.io/hashicorp/aws&quot;]</title>
<path fill="none" stroke="black" d="M672.44,-143.97C729.29,-132.5 803.63,-117.5 858.7,-106.39"/>
<polygon fill="black" stroke="black" points="859.63,-109.77 868.74,-104.37 858.25,-102.91 859.63,-109.77"/>
</g>
<!-- [root] aws_api_gateway_stage.stage (expand) -->
<g id="node10" class="node">
<title>[root] aws_api_gateway_stage.stage (expand)</title>
<polygon fill="none" stroke="black" points="582.5,-612 353.5,-612 353.5,-576 582.5,-576 582.5,-612"/>
<text text-anchor="middle" x="468" y="-590.3" font-family="Times,serif" font-size="14.00">aws_api_gateway_stage.stage</text>
</g>
<!-- [root] aws_api_gateway_stage.stage (expand)&#45;&gt;[root] aws_api_gateway_deployment.deployment (expand) -->
<g id="edge15" class="edge">
<title>[root] aws_api_gateway_stage.stage (expand)&#45;&gt;[root] aws_api_gateway_deployment.deployment (expand)</title>
<path fill="none" stroke="black" d="M452.18,-575.7C444.43,-567.22 434.96,-556.86 426.48,-547.58"/>
<polygon fill="black" stroke="black" points="428.97,-545.12 419.64,-540.1 423.8,-549.85 428.97,-545.12"/>
</g>
<!-- [root] aws_iam_policy.sqs_policy (expand) -->
<g id="node11" class="node">
<title>[root] aws_iam_policy.sqs_policy (expand)</title>
<polygon fill="none" stroke="black" points="1058.5,-396 857.5,-396 857.5,-360 1058.5,-360 1058.5,-396"/>
<text text-anchor="middle" x="958" y="-374.3" font-family="Times,serif" font-size="14.00">aws_iam_policy.sqs_policy</text>
</g>
<!-- [root] aws_iam_policy.sqs_policy (expand)&#45;&gt;[root] aws_sqs_queue.queue (expand) -->
<g id="edge16" class="edge">
<title>[root] aws_iam_policy.sqs_policy (expand)&#45;&gt;[root] aws_sqs_queue.queue (expand)</title>
<path fill="none" stroke="black" d="M957.51,-359.7C957.29,-351.98 957.02,-342.71 956.77,-334.11"/>
<polygon fill="black" stroke="black" points="960.27,-334 956.49,-324.1 953.28,-334.2 960.27,-334"/>
</g>
<!-- [root] aws_iam_role.apigateway_role (expand)&#45;&gt;[root] provider[&quot;registry.terraform.io/hashicorp/aws&quot;] -->
<g id="edge17" class="edge">
<title>[root] aws_iam_role.apigateway_role (expand)&#45;&gt;[root] provider[&quot;registry.terraform.io/hashicorp/aws&quot;]</title>
<path fill="none" stroke="black" d="M839.65,-287.95C861.05,-280.11 881.68,-268.67 897,-252 930.99,-215.01 936.27,-153.41 936.21,-118.1"/>
<polygon fill="black" stroke="black" points="939.71,-117.98 936.04,-108.04 932.71,-118.09 939.71,-117.98"/>
</g>
<!-- [root] aws_iam_role.iam_for_lambda (expand) -->
<g id="node13" class="node">
<title>[root] aws_iam_role.iam_for_lambda (expand)</title>
<polygon fill="none" stroke="black" points="1211.5,-180 982.5,-180 982.5,-144 1211.5,-144 1211.5,-180"/>
<text text-anchor="middle" x="1097" y="-158.3" font-family="Times,serif" font-size="14.00">aws_iam_role.iam_for_lambda</text>
</g>
<!-- [root] aws_iam_role.iam_for_lambda (expand)&#45;&gt;[root] provider[&quot;registry.terraform.io/hashicorp/aws&quot;] -->
<g id="edge18" class="edge">
<title>[root] aws_iam_role.iam_for_lambda (expand)&#45;&gt;[root] provider[&quot;registry.terraform.io/hashicorp/aws&quot;]</title>
<path fill="none" stroke="black" d="M1057.37,-143.88C1033.8,-133.69 1003.85,-120.75 979.47,-110.22"/>
<polygon fill="black" stroke="black" points="980.66,-106.92 970.09,-106.16 977.88,-113.34 980.66,-106.92"/>
</g>
<!-- [root] aws_iam_role_policy_attachment.apigateway_policy_attachment (expand) -->
<g id="node14" class="node">
<title>[root] aws_iam_role_policy_attachment.apigateway_policy_attachment (expand)</title>
<polygon fill="none" stroke="black" points="1068.5,-468 595.5,-468 595.5,-432 1068.5,-432 1068.5,-468"/>
<text text-anchor="middle" x="832" y="-446.3" font-family="Times,serif" font-size="14.00">aws_iam_role_policy_attachment.apigateway_policy_attachment</text>
</g>
<!-- [root] aws_iam_role_policy_attachment.apigateway_policy_attachment (expand)&#45;&gt;[root] aws_iam_policy.sqs_policy (expand) -->
<g id="edge19" class="edge">
<title>[root] aws_iam_role_policy_attachment.apigateway_policy_attachment (expand)&#45;&gt;[root] aws_iam_policy.sqs_policy (expand)</title>
<path fill="none" stroke="black" d="M862.82,-431.88C879.45,-422.64 900.16,-411.13 918.02,-401.21"/>
<polygon fill="black" stroke="black" points="920.02,-404.11 927.06,-396.19 916.62,-397.99 920.02,-404.11"/>
</g>
<!-- [root] aws_iam_role_policy_attachment.apigateway_policy_attachment (expand)&#45;&gt;[root] aws_iam_role.apigateway_role (expand) -->
<g id="edge20" class="edge">
<title>[root] aws_iam_role_policy_attachment.apigateway_policy_attachment (expand)&#45;&gt;[root] aws_iam_role.apigateway_role (expand)</title>
<path fill="none" stroke="black" d="M831.28,-431.83C829.72,-412.77 824.9,-381.82 810,-360 801.83,-348.03 790,-337.87 778.14,-329.75"/>
<polygon fill="black" stroke="black" points="779.85,-326.69 769.55,-324.21 776.05,-332.57 779.85,-326.69"/>
</g>
<!-- [root] aws_lambda_function.function (expand) -->
<g id="node15" class="node">
<title>[root] aws_lambda_function.function (expand)</title>
<polygon fill="none" stroke="black" points="1133,-612 901,-612 901,-576 1133,-576 1133,-612"/>
<text text-anchor="middle" x="1017" y="-590.3" font-family="Times,serif" font-size="14.00">aws_lambda_function.function</text>
</g>
<!-- [root] aws_lambda_function.function (expand)&#45;&gt;[root] aws_iam_role.iam_for_lambda (expand) -->
<g id="edge21" class="edge">
<title>[root] aws_lambda_function.function (expand)&#45;&gt;[root] aws_iam_role.iam_for_lambda (expand)</title>
<path fill="none" stroke="black" d="M1034.36,-575.93C1057.89,-550.89 1097,-501.65 1097,-451 1097,-451 1097,-451 1097,-305 1097,-265 1097,-218.65 1097,-190.08"/>
<polygon fill="black" stroke="black" points="1100.5,-190.05 1097,-180.05 1093.5,-190.05 1100.5,-190.05"/>
</g>
<!-- [root] data.archive_file.lambda_code (expand) -->
<g id="node17" class="node">
<title>[root] data.archive_file.lambda_code (expand)</title>
<polygon fill="none" stroke="black" points="1574,-540 1344,-540 1344,-504 1574,-504 1574,-540"/>
<text text-anchor="middle" x="1459" y="-518.3" font-family="Times,serif" font-size="14.00">data.archive_file.lambda_code</text>
</g>
<!-- [root] aws_lambda_function.function (expand)&#45;&gt;[root] data.archive_file.lambda_code (expand) -->
<g id="edge22" class="edge">
<title>[root] aws_lambda_function.function (expand)&#45;&gt;[root] data.archive_file.lambda_code (expand)</title>
<path fill="none" stroke="black" d="M1124.56,-575.97C1190.06,-565.59 1273.81,-552.33 1341.11,-541.67"/>
<polygon fill="black" stroke="black" points="1342.01,-545.07 1351.34,-540.05 1340.92,-538.16 1342.01,-545.07"/>
</g>
<!-- [root] aws_sqs_queue.queue (expand)&#45;&gt;[root] provider[&quot;registry.terraform.io/hashicorp/aws&quot;] -->
<g id="edge23" class="edge">
<title>[root] aws_sqs_queue.queue (expand)&#45;&gt;[root] provider[&quot;registry.terraform.io/hashicorp/aws&quot;]</title>
<path fill="none" stroke="black" d="M954.32,-287.85C950.68,-250.74 942.04,-162.75 937.65,-118.05"/>
<polygon fill="black" stroke="black" points="941.12,-117.55 936.66,-107.94 934.16,-118.23 941.12,-117.55"/>
</g>
<!-- [root] provider[&quot;registry.terraform.io/hashicorp/archive&quot;] -->
<g id="node18" class="node">
<title>[root] provider[&quot;registry.terraform.io/hashicorp/archive&quot;]</title>
<polygon fill="none" stroke="black" points="1473,-468 1124.78,-450 1473,-432 1821.22,-450 1473,-468"/>
<text text-anchor="middle" x="1473" y="-446.3" font-family="Times,serif" font-size="14.00">provider[&quot;registry.terraform.io/hashicorp/archive&quot;]</text>
</g>
<!-- [root] data.archive_file.lambda_code (expand)&#45;&gt;[root] provider[&quot;registry.terraform.io/hashicorp/archive&quot;] -->
<g id="edge24" class="edge">
<title>[root] data.archive_file.lambda_code (expand)&#45;&gt;[root] provider[&quot;registry.terraform.io/hashicorp/archive&quot;]</title>
<path fill="none" stroke="black" d="M1462.46,-503.7C1464,-495.98 1465.86,-486.71 1467.58,-478.11"/>
<polygon fill="black" stroke="black" points="1471.05,-478.6 1469.58,-468.1 1464.19,-477.22 1471.05,-478.6"/>
</g>
<!-- [root] var.aws_region -->
<g id="node20" class="node">
<title>[root] var.aws_region</title>
<polygon fill="none" stroke="black" points="928.5,-36 811.5,-36 811.5,0 934.5,0 934.5,-30 928.5,-36"/>
<polyline fill="none" stroke="black" points="928.5,-36 928.5,-30 "/>
<polyline fill="none" stroke="black" points="934.5,-30 928.5,-30 "/>
<text text-anchor="middle" x="873" y="-14.3" font-family="Times,serif" font-size="14.00">var.aws_region</text>
</g>
<!-- [root] provider[&quot;registry.terraform.io/hashicorp/aws&quot;]&#45;&gt;[root] var.aws_region -->
<g id="edge30" class="edge">
<title>[root] provider[&quot;registry.terraform.io/hashicorp/aws&quot;]&#45;&gt;[root] var.aws_region</title>
<path fill="none" stroke="black" d="M920.62,-72.76C913.02,-64.18 903.52,-53.46 895.02,-43.86"/>
<polygon fill="black" stroke="black" points="897.42,-41.29 888.17,-36.12 892.18,-45.93 897.42,-41.29"/>
</g>
<!-- [root] var.profile -->
<g id="node21" class="node">
<title>[root] var.profile</title>
<polygon fill="none" stroke="black" points="1035.5,-36 952.5,-36 952.5,0 1041.5,0 1041.5,-30 1035.5,-36"/>
<polyline fill="none" stroke="black" points="1035.5,-36 1035.5,-30 "/>
<polyline fill="none" stroke="black" points="1041.5,-30 1035.5,-30 "/>
<text text-anchor="middle" x="997" y="-14.3" font-family="Times,serif" font-size="14.00">var.profile</text>
</g>
<!-- [root] provider[&quot;registry.terraform.io/hashicorp/aws&quot;]&#45;&gt;[root] var.profile -->
<g id="edge31" class="edge">
<title>[root] provider[&quot;registry.terraform.io/hashicorp/aws&quot;]&#45;&gt;[root] var.profile</title>
<path fill="none" stroke="black" d="M949.38,-72.76C956.98,-64.18 966.48,-53.46 974.98,-43.86"/>
<polygon fill="black" stroke="black" points="977.82,-45.93 981.83,-36.12 972.58,-41.29 977.82,-45.93"/>
</g>
<!-- [root] output.apigateway_url (expand) -->
<g id="node22" class="node">
<title>[root] output.apigateway_url (expand)</title>
<ellipse fill="none" stroke="black" cx="468" cy="-666" rx="187.37" ry="18"/>
<text text-anchor="middle" x="468" y="-662.3" font-family="Times,serif" font-size="14.00">[root] output.apigateway_url (expand)</text>
</g>
<!-- [root] output.apigateway_url (expand)&#45;&gt;[root] aws_api_gateway_stage.stage (expand) -->
<g id="edge25" class="edge">
<title>[root] output.apigateway_url (expand)&#45;&gt;[root] aws_api_gateway_stage.stage (expand)</title>
<path fill="none" stroke="black" d="M468,-647.7C468,-639.98 468,-630.71 468,-622.11"/>
<polygon fill="black" stroke="black" points="471.5,-622.1 468,-612.1 464.5,-622.1 471.5,-622.1"/>
</g>
<!-- [root] provider[&quot;registry.terraform.io/hashicorp/archive&quot;] (close) -->
<g id="node23" class="node">
<title>[root] provider[&quot;registry.terraform.io/hashicorp/archive&quot;] (close)</title>
<ellipse fill="none" stroke="black" cx="1459" cy="-594" rx="308.15" ry="18"/>
<text text-anchor="middle" x="1459" y="-590.3" font-family="Times,serif" font-size="14.00">[root] provider[&quot;registry.terraform.io/hashicorp/archive&quot;] (close)</text>
</g>
<!-- [root] provider[&quot;registry.terraform.io/hashicorp/archive&quot;] (close)&#45;&gt;[root] data.archive_file.lambda_code (expand) -->
<g id="edge26" class="edge">
<title>[root] provider[&quot;registry.terraform.io/hashicorp/archive&quot;] (close)&#45;&gt;[root] data.archive_file.lambda_code (expand)</title>
<path fill="none" stroke="black" d="M1459,-575.7C1459,-567.98 1459,-558.71 1459,-550.11"/>
<polygon fill="black" stroke="black" points="1462.5,-550.1 1459,-540.1 1455.5,-550.1 1462.5,-550.1"/>
</g>
<!-- [root] provider[&quot;registry.terraform.io/hashicorp/aws&quot;] (close) -->
<g id="node24" class="node">
<title>[root] provider[&quot;registry.terraform.io/hashicorp/aws&quot;] (close)</title>
<ellipse fill="none" stroke="black" cx="965" cy="-666" rx="291.65" ry="18"/>
<text text-anchor="middle" x="965" y="-662.3" font-family="Times,serif" font-size="14.00">[root] provider[&quot;registry.terraform.io/hashicorp/aws&quot;] (close)</text>
</g>
<!-- [root] provider[&quot;registry.terraform.io/hashicorp/aws&quot;] (close)&#45;&gt;[root] aws_api_gateway_stage.stage (expand) -->
<g id="edge27" class="edge">
<title>[root] provider[&quot;registry.terraform.io/hashicorp/aws&quot;] (close)&#45;&gt;[root] aws_api_gateway_stage.stage (expand)</title>
<path fill="none" stroke="black" d="M853.77,-649.33C776.39,-638.44 673.13,-623.89 592.91,-612.59"/>
<polygon fill="black" stroke="black" points="593.14,-609.09 582.75,-611.16 592.17,-616.02 593.14,-609.09"/>
</g>
<!-- [root] provider[&quot;registry.terraform.io/hashicorp/aws&quot;] (close)&#45;&gt;[root] aws_iam_role_policy_attachment.apigateway_policy_attachment (expand) -->
<g id="edge28" class="edge">
<title>[root] provider[&quot;registry.terraform.io/hashicorp/aws&quot;] (close)&#45;&gt;[root] aws_iam_role_policy_attachment.apigateway_policy_attachment (expand)</title>
<path fill="none" stroke="black" d="M933.61,-648C919.29,-638.91 903.09,-626.59 892,-612 860.9,-571.07 844.48,-512.28 837.07,-478.23"/>
<polygon fill="black" stroke="black" points="840.43,-477.18 834.97,-468.09 833.57,-478.6 840.43,-477.18"/>
</g>
<!-- [root] provider[&quot;registry.terraform.io/hashicorp/aws&quot;] (close)&#45;&gt;[root] aws_lambda_function.function (expand) -->
<g id="edge29" class="edge">
<title>[root] provider[&quot;registry.terraform.io/hashicorp/aws&quot;] (close)&#45;&gt;[root] aws_lambda_function.function (expand)</title>
<path fill="none" stroke="black" d="M977.85,-647.7C984.03,-639.39 991.54,-629.28 998.32,-620.14"/>
<polygon fill="black" stroke="black" points="1001.14,-622.22 1004.29,-612.1 995.52,-618.04 1001.14,-622.22"/>
</g>
<!-- [root] root -->
<g id="node25" class="node">
<title>[root] root</title>
<ellipse fill="none" stroke="black" cx="965" cy="-738" rx="58.49" ry="18"/>
<text text-anchor="middle" x="965" y="-734.3" font-family="Times,serif" font-size="14.00">[root] root</text>
</g>
<!-- [root] root&#45;&gt;[root] output.apigateway_url (expand) -->
<g id="edge32" class="edge">
<title>[root] root&#45;&gt;[root] output.apigateway_url (expand)</title>
<path fill="none" stroke="black" d="M912.75,-729.64C833.92,-718.54 682.76,-697.25 578.71,-682.59"/>
<polygon fill="black" stroke="black" points="579.18,-679.13 568.79,-681.2 578.21,-686.06 579.18,-679.13"/>
</g>
<!-- [root] root&#45;&gt;[root] provider[&quot;registry.terraform.io/hashicorp/archive&quot;] (close) -->
<g id="edge33" class="edge">
<title>[root] root&#45;&gt;[root] provider[&quot;registry.terraform.io/hashicorp/archive&quot;] (close)</title>
<path fill="none" stroke="black" d="M1019.83,-731.64C1080.94,-724.69 1182.19,-710.22 1266,-684 1321.19,-666.74 1381.14,-637.25 1419.33,-616.98"/>
<polygon fill="black" stroke="black" points="1421.4,-619.85 1428.56,-612.04 1418.09,-613.68 1421.4,-619.85"/>
</g>
<!-- [root] root&#45;&gt;[root] provider[&quot;registry.terraform.io/hashicorp/aws&quot;] (close) -->
<g id="edge34" class="edge">
<title>[root] root&#45;&gt;[root] provider[&quot;registry.terraform.io/hashicorp/aws&quot;] (close)</title>
<path fill="none" stroke="black" d="M965,-719.7C965,-711.98 965,-702.71 965,-694.11"/>
<polygon fill="black" stroke="black" points="968.5,-694.1 965,-684.1 961.5,-694.1 968.5,-694.1"/>
</g>
</g>
</svg>
