<?xml version="1.0" encoding="UTF-8" standalone="no"?>
<!DOCTYPE svg PUBLIC "-//W3C//DTD SVG 1.1//EN"
 "http://www.w3.org/Graphics/SVG/1.1/DTD/svg11.dtd">
<!-- Generated by graphviz version 2.43.0 (0)
 -->
<!-- Title: %3 Pages: 1 -->
<svg width="1249pt" height="764pt"
 viewBox="0.00 0.00 1249.38 764.00" xmlns="http://www.w3.org/2000/svg" xmlns:xlink="http://www.w3.org/1999/xlink">
<g id="graph0" class="graph" transform="scale(1 1) rotate(0) translate(4 760)">
<title>%3</title>
<polygon fill="white" stroke="transparent" points="-4,4 -4,-760 1245.38,-760 1245.38,4 -4,4"/>
<!-- [root] aws_api_gateway_deployment.deployment (expand) -->
<g id="node1" class="node">
<title>[root] aws_api_gateway_deployment.deployment (expand)</title>
<polygon fill="none" stroke="black" points="820.5,-540 501.5,-540 501.5,-504 820.5,-504 820.5,-540"/>
<text text-anchor="middle" x="661" y="-518.3" font-family="Times,serif" font-size="14.00">aws_api_gateway_deployment.deployment</text>
</g>
<!-- [root] aws_api_gateway_integration_response.integration_response (expand) -->
<g id="node3" class="node">
<title>[root] aws_api_gateway_integration_response.integration_response (expand)</title>
<polygon fill="none" stroke="black" points="741,-468 289,-468 289,-432 741,-432 741,-468"/>
<text text-anchor="middle" x="515" y="-446.3" font-family="Times,serif" font-size="14.00">aws_api_gateway_integration_response.integration_response</text>
</g>
<!-- [root] aws_api_gateway_deployment.deployment (expand)&#45;&gt;[root] aws_api_gateway_integration_response.integration_response (expand) -->
<g id="edge1" class="edge">
<title>[root] aws_api_gateway_deployment.deployment (expand)&#45;&gt;[root] aws_api_gateway_integration_response.integration_response (expand)</title>
<path fill="none" stroke="black" d="M625.28,-503.88C605.5,-494.39 580.73,-482.51 559.67,-472.42"/>
<polygon fill="black" stroke="black" points="561.13,-469.24 550.6,-468.07 558.1,-475.55 561.13,-469.24"/>
</g>
<!-- [root] aws_api_gateway_integration.integration (expand) -->
<g id="node2" class="node">
<title>[root] aws_api_gateway_integration.integration (expand)</title>
<polygon fill="none" stroke="black" points="904,-396 594,-396 594,-360 904,-360 904,-396"/>
<text text-anchor="middle" x="749" y="-374.3" font-family="Times,serif" font-size="14.00">aws_api_gateway_integration.integration</text>
</g>
<!-- [root] aws_api_gateway_method.method (expand) -->
<g id="node4" class="node">
<title>[root] aws_api_gateway_method.method (expand)</title>
<polygon fill="none" stroke="black" points="554.5,-324 295.5,-324 295.5,-288 554.5,-288 554.5,-324"/>
<text text-anchor="middle" x="425" y="-302.3" font-family="Times,serif" font-size="14.00">aws_api_gateway_method.method</text>
</g>
<!-- [root] aws_api_gateway_integration.integration (expand)&#45;&gt;[root] aws_api_gateway_method.method (expand) -->
<g id="edge2" class="edge">
<title>[root] aws_api_gateway_integration.integration (expand)&#45;&gt;[root] aws_api_gateway_method.method (expand)</title>
<path fill="none" stroke="black" d="M670.15,-359.97C622.93,-349.76 562.76,-336.76 513.86,-326.2"/>
<polygon fill="black" stroke="black" points="514.43,-322.74 503.92,-324.05 512.95,-329.58 514.43,-322.74"/>
</g>
<!-- [root] aws_iam_role.apigateway_role (expand) -->
<g id="node12" class="node">
<title>[root] aws_iam_role.apigateway_role (expand)</title>
<polygon fill="none" stroke="black" points="910.5,-324 677.5,-324 677.5,-288 910.5,-288 910.5,-324"/>
<text text-anchor="middle" x="794" y="-302.3" font-family="Times,serif" font-size="14.00">aws_iam_role.apigateway_role</text>
</g>
<!-- [root] aws_api_gateway_integration.integration (expand)&#45;&gt;[root] aws_iam_role.apigateway_role (expand) -->
<g id="edge3" class="edge">
<title>[root] aws_api_gateway_integration.integration (expand)&#45;&gt;[root] aws_iam_role.apigateway_role (expand)</title>
<path fill="none" stroke="black" d="M760.12,-359.7C765.36,-351.56 771.7,-341.69 777.48,-332.7"/>
<polygon fill="black" stroke="black" points="780.54,-334.41 783,-324.1 774.65,-330.62 780.54,-334.41"/>
</g>
<!-- [root] aws_sqs_queue.queue (expand) -->
<g id="node14" class="node">
<title>[root] aws_sqs_queue.queue (expand)</title>
<polygon fill="none" stroke="black" points="1101.5,-324 928.5,-324 928.5,-288 1101.5,-288 1101.5,-324"/>
<text text-anchor="middle" x="1015" y="-302.3" font-family="Times,serif" font-size="14.00">aws_sqs_queue.queue</text>
</g>
<!-- [root] aws_api_gateway_integration.integration (expand)&#45;&gt;[root] aws_sqs_queue.queue (expand) -->
<g id="edge4" class="edge">
<title>[root] aws_api_gateway_integration.integration (expand)&#45;&gt;[root] aws_sqs_queue.queue (expand)</title>
<path fill="none" stroke="black" d="M813.73,-359.97C851.87,-349.93 900.28,-337.19 940.06,-326.72"/>
<polygon fill="black" stroke="black" points="941.2,-330.04 949.98,-324.11 939.42,-323.27 941.2,-330.04"/>
</g>
<!-- [root] aws_api_gateway_integration_response.integration_response (expand)&#45;&gt;[root] aws_api_gateway_integration.integration (expand) -->
<g id="edge5" class="edge">
<title>[root] aws_api_gateway_integration_response.integration_response (expand)&#45;&gt;[root] aws_api_gateway_integration.integration (expand)</title>
<path fill="none" stroke="black" d="M571.94,-431.97C605.21,-422.01 647.36,-409.41 682.19,-398.99"/>
<polygon fill="black" stroke="black" points="683.22,-402.33 691.8,-396.11 681.22,-395.62 683.22,-402.33"/>
</g>
<!-- [root] aws_api_gateway_method_response.response_200 (expand) -->
<g id="node5" class="node">
<title>[root] aws_api_gateway_method_response.response_200 (expand)</title>
<polygon fill="none" stroke="black" points="576,-396 202,-396 202,-360 576,-360 576,-396"/>
<text text-anchor="middle" x="389" y="-374.3" font-family="Times,serif" font-size="14.00">aws_api_gateway_method_response.response_200</text>
</g>
<!-- [root] aws_api_gateway_integration_response.integration_response (expand)&#45;&gt;[root] aws_api_gateway_method_response.response_200 (expand) -->
<g id="edge6" class="edge">
<title>[root] aws_api_gateway_integration_response.integration_response (expand)&#45;&gt;[root] aws_api_gateway_method_response.response_200 (expand)</title>
<path fill="none" stroke="black" d="M484.18,-431.88C467.55,-422.64 446.84,-411.13 428.98,-401.21"/>
<polygon fill="black" stroke="black" points="430.38,-397.99 419.94,-396.19 426.98,-404.11 430.38,-397.99"/>
</g>
<!-- [root] aws_api_gateway_model.model (expand) -->
<g id="node6" class="node">
<title>[root] aws_api_gateway_model.model (expand)</title>
<polygon fill="none" stroke="black" points="238,-252 0,-252 0,-216 238,-216 238,-252"/>
<text text-anchor="middle" x="119" y="-230.3" font-family="Times,serif" font-size="14.00">aws_api_gateway_model.model</text>
</g>
<!-- [root] aws_api_gateway_method.method (expand)&#45;&gt;[root] aws_api_gateway_model.model (expand) -->
<g id="edge7" class="edge">
<title>[root] aws_api_gateway_method.method (expand)&#45;&gt;[root] aws_api_gateway_model.model (expand)</title>
<path fill="none" stroke="black" d="M350.54,-287.97C306.12,-277.8 249.58,-264.87 203.5,-254.33"/>
<polygon fill="black" stroke="black" points="204.06,-250.87 193.53,-252.05 202.5,-257.69 204.06,-250.87"/>
</g>
<!-- [root] aws_api_gateway_request_validator.validator (expand) -->
<g id="node7" class="node">
<title>[root] aws_api_gateway_request_validator.validator (expand)</title>
<polygon fill="none" stroke="black" points="594,-252 256,-252 256,-216 594,-216 594,-252"/>
<text text-anchor="middle" x="425" y="-230.3" font-family="Times,serif" font-size="14.00">aws_api_gateway_request_validator.validator</text>
</g>
<!-- [root] aws_api_gateway_method.method (expand)&#45;&gt;[root] aws_api_gateway_request_validator.validator (expand) -->
<g id="edge8" class="edge">
<title>[root] aws_api_gateway_method.method (expand)&#45;&gt;[root] aws_api_gateway_request_validator.validator (expand)</title>
<path fill="none" stroke="black" d="M425,-287.7C425,-279.98 425,-270.71 425,-262.11"/>
<polygon fill="black" stroke="black" points="428.5,-262.1 425,-252.1 421.5,-262.1 428.5,-262.1"/>
</g>
<!-- [root] aws_api_gateway_resource.resource (expand) -->
<g id="node8" class="node">
<title>[root] aws_api_gateway_resource.resource (expand)</title>
<polygon fill="none" stroke="black" points="887.5,-252 612.5,-252 612.5,-216 887.5,-216 887.5,-252"/>
<text text-anchor="middle" x="750" y="-230.3" font-family="Times,serif" font-size="14.00">aws_api_gateway_resource.resource</text>
</g>
<!-- [root] aws_api_gateway_method.method (expand)&#45;&gt;[root] aws_api_gateway_resource.resource (expand) -->
<g id="edge9" class="edge">
<title>[root] aws_api_gateway_method.method (expand)&#45;&gt;[root] aws_api_gateway_resource.resource (expand)</title>
<path fill="none" stroke="black" d="M504.09,-287.97C551.46,-277.76 611.81,-264.76 660.87,-254.2"/>
<polygon fill="black" stroke="black" points="661.8,-257.58 670.84,-252.05 660.33,-250.73 661.8,-257.58"/>
</g>
<!-- [root] aws_api_gateway_method_response.response_200 (expand)&#45;&gt;[root] aws_api_gateway_method.method (expand) -->
<g id="edge10" class="edge">
<title>[root] aws_api_gateway_method_response.response_200 (expand)&#45;&gt;[root] aws_api_gateway_method.method (expand)</title>
<path fill="none" stroke="black" d="M397.9,-359.7C402,-351.73 406.95,-342.1 411.49,-333.26"/>
<polygon fill="black" stroke="black" points="414.74,-334.6 416.2,-324.1 408.52,-331.4 414.74,-334.6"/>
</g>
<!-- [root] aws_api_gateway_rest_api.api (expand) -->
<g id="node9" class="node">
<title>[root] aws_api_gateway_rest_api.api (expand)</title>
<polygon fill="none" stroke="black" points="703,-180 473,-180 473,-144 703,-144 703,-180"/>
<text text-anchor="middle" x="588" y="-158.3" font-family="Times,serif" font-size="14.00">aws_api_gateway_rest_api.api</text>
</g>
<!-- [root] aws_api_gateway_model.model (expand)&#45;&gt;[root] aws_api_gateway_rest_api.api (expand) -->
<g id="edge11" class="edge">
<title>[root] aws_api_gateway_model.model (expand)&#45;&gt;[root] aws_api_gateway_rest_api.api (expand)</title>
<path fill="none" stroke="black" d="M233.13,-215.97C302.92,-205.55 392.23,-192.22 463.79,-181.54"/>
<polygon fill="black" stroke="black" points="464.39,-184.99 473.76,-180.05 463.36,-178.06 464.39,-184.99"/>
</g>
<!-- [root] aws_api_gateway_request_validator.validator (expand)&#45;&gt;[root] aws_api_gateway_rest_api.api (expand) -->
<g id="edge12" class="edge">
<title>[root] aws_api_gateway_request_validator.validator (expand)&#45;&gt;[root] aws_api_gateway_rest_api.api (expand)</title>
<path fill="none" stroke="black" d="M464.87,-215.88C487.16,-206.31 515.12,-194.3 538.76,-184.15"/>
<polygon fill="black" stroke="black" points="540.45,-187.23 548.26,-180.07 537.69,-180.8 540.45,-187.23"/>
</g>
<!-- [root] aws_api_gateway_resource.resource (expand)&#45;&gt;[root] aws_api_gateway_rest_api.api (expand) -->
<g id="edge13" class="edge">
<title>[root] aws_api_gateway_resource.resource (expand)&#45;&gt;[root] aws_api_gateway_rest_api.api (expand)</title>
<path fill="none" stroke="black" d="M710.37,-215.88C688.22,-206.31 660.44,-194.3 636.94,-184.15"/>
<polygon fill="black" stroke="black" points="638.07,-180.82 627.5,-180.07 635.29,-187.25 638.07,-180.82"/>
</g>
<!-- [root] provider[&quot;registry.terraform.io/hashicorp/aws&quot;] -->
<g id="node15" class="node">
<title>[root] provider[&quot;registry.terraform.io/hashicorp/aws&quot;]</title>
<polygon fill="none" stroke="black" points="916,-108 590.74,-90 916,-72 1241.26,-90 916,-108"/>
<text text-anchor="middle" x="916" y="-86.3" font-family="Times,serif" font-size="14.00">provider[&quot;registry.terraform.io/hashicorp/aws&quot;]</text>
</g>
<!-- [root] aws_api_gateway_rest_api.api (expand)&#45;&gt;[root] provider[&quot;registry.terraform.io/hashicorp/aws&quot;] -->
<g id="edge14" class="edge">
<title>[root] aws_api_gateway_rest_api.api (expand)&#45;&gt;[root] provider[&quot;registry.terraform.io/hashicorp/aws&quot;]</title>
<path fill="none" stroke="black" d="M667.82,-143.97C721.17,-132.58 790.84,-117.71 842.77,-106.63"/>
<polygon fill="black" stroke="black" points="843.53,-110.04 852.58,-104.53 842.07,-103.2 843.53,-110.04"/>
</g>
<!-- [root] aws_api_gateway_stage.stage (expand) -->
<g id="node10" class="node">
<title>[root] aws_api_gateway_stage.stage (expand)</title>
<polygon fill="none" stroke="black" points="871.5,-612 642.5,-612 642.5,-576 871.5,-576 871.5,-612"/>
<text text-anchor="middle" x="757" y="-590.3" font-family="Times,serif" font-size="14.00">aws_api_gateway_stage.stage</text>
</g>
<!-- [root] aws_api_gateway_stage.stage (expand)&#45;&gt;[root] aws_api_gateway_deployment.deployment (expand) -->
<g id="edge15" class="edge">
<title>[root] aws_api_gateway_stage.stage (expand)&#45;&gt;[root] aws_api_gateway_deployment.deployment (expand)</title>
<path fill="none" stroke="black" d="M733.27,-575.7C721.06,-566.8 706.01,-555.82 692.82,-546.2"/>
<polygon fill="black" stroke="black" points="694.6,-543.17 684.46,-540.1 690.48,-548.82 694.6,-543.17"/>
</g>
<!-- [root] aws_iam_policy.sqs_policy (expand) -->
<g id="node11" class="node">
<title>[root] aws_iam_policy.sqs_policy (expand)</title>
<polygon fill="none" stroke="black" points="1161.5,-396 960.5,-396 960.5,-360 1161.5,-360 1161.5,-396"/>
<text text-anchor="middle" x="1061" y="-374.3" font-family="Times,serif" font-size="14.00">aws_iam_policy.sqs_policy</text>
</g>
<!-- [root] aws_iam_policy.sqs_policy (expand)&#45;&gt;[root] aws_sqs_queue.queue (expand) -->
<g id="edge16" class="edge">
<title>[root] aws_iam_policy.sqs_policy (expand)&#45;&gt;[root] aws_sqs_queue.queue (expand)</title>
<path fill="none" stroke="black" d="M1049.63,-359.7C1044.28,-351.56 1037.8,-341.69 1031.89,-332.7"/>
<polygon fill="black" stroke="black" points="1034.66,-330.54 1026.24,-324.1 1028.81,-334.38 1034.66,-330.54"/>
</g>
<!-- [root] aws_iam_role.apigateway_role (expand)&#45;&gt;[root] provider[&quot;registry.terraform.io/hashicorp/aws&quot;] -->
<g id="edge17" class="edge">
<title>[root] aws_iam_role.apigateway_role (expand)&#45;&gt;[root] provider[&quot;registry.terraform.io/hashicorp/aws&quot;]</title>
<path fill="none" stroke="black" d="M850.17,-287.98C867.86,-279.87 885.71,-268.28 897,-252 924.65,-212.14 923.68,-152.98 920.1,-118.57"/>
<polygon fill="black" stroke="black" points="923.53,-117.84 918.87,-108.32 916.58,-118.67 923.53,-117.84"/>
</g>
<!-- [root] aws_iam_role_policy_attachment.apigateway_policy_attachment (expand) -->
<g id="node13" class="node">
<title>[root] aws_iam_role_policy_attachment.apigateway_policy_attachment (expand)</title>
<polygon fill="none" stroke="black" points="1232.5,-468 759.5,-468 759.5,-432 1232.5,-432 1232.5,-468"/>
<text text-anchor="middle" x="996" y="-446.3" font-family="Times,serif" font-size="14.00">aws_iam_role_policy_attachment.apigateway_policy_attachment</text>
</g>
<!-- [root] aws_iam_role_policy_attachment.apigateway_policy_attachment (expand)&#45;&gt;[root] aws_iam_policy.sqs_policy (expand) -->
<g id="edge18" class="edge">
<title>[root] aws_iam_role_policy_attachment.apigateway_policy_attachment (expand)&#45;&gt;[root] aws_iam_policy.sqs_policy (expand)</title>
<path fill="none" stroke="black" d="M1012.07,-431.7C1019.94,-423.22 1029.56,-412.86 1038.17,-403.58"/>
<polygon fill="black" stroke="black" points="1040.88,-405.81 1045.12,-396.1 1035.75,-401.05 1040.88,-405.81"/>
</g>
<!-- [root] aws_iam_role_policy_attachment.apigateway_policy_attachment (expand)&#45;&gt;[root] aws_iam_role.apigateway_role (expand) -->
<g id="edge19" class="edge">
<title>[root] aws_iam_role_policy_attachment.apigateway_policy_attachment (expand)&#45;&gt;[root] aws_iam_role.apigateway_role (expand)</title>
<path fill="none" stroke="black" d="M981.51,-431.91C962.07,-409.25 928.22,-370.86 913,-360 894.88,-347.07 873.11,-336.25 853.16,-327.83"/>
<polygon fill="black" stroke="black" points="854.43,-324.57 843.85,-324.01 851.77,-331.04 854.43,-324.57"/>
</g>
<!-- [root] aws_sqs_queue.queue (expand)&#45;&gt;[root] provider[&quot;registry.terraform.io/hashicorp/aws&quot;] -->
<g id="edge20" class="edge">
<title>[root] aws_sqs_queue.queue (expand)&#45;&gt;[root] provider[&quot;registry.terraform.io/hashicorp/aws&quot;]</title>
<path fill="none" stroke="black" d="M1007.07,-287.85C989.75,-250.41 948.47,-161.19 927.97,-116.88"/>
<polygon fill="black" stroke="black" points="931.07,-115.25 923.7,-107.64 924.72,-118.19 931.07,-115.25"/>
</g>
<!-- [root] var.aws_region -->
<g id="node16" class="node">
<title>[root] var.aws_region</title>
<polygon fill="none" stroke="black" points="909.5,-36 792.5,-36 792.5,0 915.5,0 915.5,-30 909.5,-36"/>
<polyline fill="none" stroke="black" points="909.5,-36 909.5,-30 "/>
<polyline fill="none" stroke="black" points="915.5,-30 909.5,-30 "/>
<text text-anchor="middle" x="854" y="-14.3" font-family="Times,serif" font-size="14.00">var.aws_region</text>
</g>
<!-- [root] provider[&quot;registry.terraform.io/hashicorp/aws&quot;]&#45;&gt;[root] var.aws_region -->
<g id="edge23" class="edge">
<title>[root] provider[&quot;registry.terraform.io/hashicorp/aws&quot;]&#45;&gt;[root] var.aws_region</title>
<path fill="none" stroke="black" d="M901.62,-72.76C894.02,-64.18 884.52,-53.46 876.02,-43.86"/>
<polygon fill="black" stroke="black" points="878.42,-41.29 869.17,-36.12 873.18,-45.93 878.42,-41.29"/>
</g>
<!-- [root] var.profile -->
<g id="node17" class="node">
<title>[root] var.profile</title>
<polygon fill="none" stroke="black" points="1016.5,-36 933.5,-36 933.5,0 1022.5,0 1022.5,-30 1016.5,-36"/>
<polyline fill="none" stroke="black" points="1016.5,-36 1016.5,-30 "/>
<polyline fill="none" stroke="black" points="1022.5,-30 1016.5,-30 "/>
<text text-anchor="middle" x="978" y="-14.3" font-family="Times,serif" font-size="14.00">var.profile</text>
</g>
<!-- [root] provider[&quot;registry.terraform.io/hashicorp/aws&quot;]&#45;&gt;[root] var.profile -->
<g id="edge24" class="edge">
<title>[root] provider[&quot;registry.terraform.io/hashicorp/aws&quot;]&#45;&gt;[root] var.profile</title>
<path fill="none" stroke="black" d="M930.38,-72.76C937.98,-64.18 947.48,-53.46 955.98,-43.86"/>
<polygon fill="black" stroke="black" points="958.82,-45.93 962.83,-36.12 953.58,-41.29 958.82,-45.93"/>
</g>
<!-- [root] provider[&quot;registry.terraform.io/hashicorp/aws&quot;] (close) -->
<g id="node18" class="node">
<title>[root] provider[&quot;registry.terraform.io/hashicorp/aws&quot;] (close)</title>
<ellipse fill="none" stroke="black" cx="828" cy="-666" rx="291.65" ry="18"/>
<text text-anchor="middle" x="828" y="-662.3" font-family="Times,serif" font-size="14.00">[root] provider[&quot;registry.terraform.io/hashicorp/aws&quot;] (close)</text>
</g>
<!-- [root] provider[&quot;registry.terraform.io/hashicorp/aws&quot;] (close)&#45;&gt;[root] aws_api_gateway_stage.stage (expand) -->
<g id="edge21" class="edge">
<title>[root] provider[&quot;registry.terraform.io/hashicorp/aws&quot;] (close)&#45;&gt;[root] aws_api_gateway_stage.stage (expand)</title>
<path fill="none" stroke="black" d="M810.45,-647.7C801.77,-639.14 791.14,-628.66 781.65,-619.3"/>
<polygon fill="black" stroke="black" points="783.93,-616.63 774.35,-612.1 779.01,-621.62 783.93,-616.63"/>
</g>
<!-- [root] provider[&quot;registry.terraform.io/hashicorp/aws&quot;] (close)&#45;&gt;[root] aws_iam_role_policy_attachment.apigateway_policy_attachment (expand) -->
<g id="edge22" class="edge">
<title>[root] provider[&quot;registry.terraform.io/hashicorp/aws&quot;] (close)&#45;&gt;[root] aws_iam_role_policy_attachment.apigateway_policy_attachment (expand)</title>
<path fill="none" stroke="black" d="M846.43,-648.03C856.98,-637.96 870.23,-624.71 881,-612 919.36,-566.72 958.32,-509.23 979.6,-476.64"/>
<polygon fill="black" stroke="black" points="982.61,-478.43 985.11,-468.13 976.74,-474.62 982.61,-478.43"/>
</g>
<!-- [root] root -->
<g id="node19" class="node">
<title>[root] root</title>
<ellipse fill="none" stroke="black" cx="828" cy="-738" rx="58.49" ry="18"/>
<text text-anchor="middle" x="828" y="-734.3" font-family="Times,serif" font-size="14.00">[root] root</text>
</g>
<!-- [root] root&#45;&gt;[root] provider[&quot;registry.terraform.io/hashicorp/aws&quot;] (close) -->
<g id="edge25" class="edge">
<title>[root] root&#45;&gt;[root] provider[&quot;registry.terraform.io/hashicorp/aws&quot;] (close)</title>
<path fill="none" stroke="black" d="M828,-719.7C828,-711.98 828,-702.71 828,-694.11"/>
<polygon fill="black" stroke="black" points="831.5,-694.1 828,-684.1 824.5,-694.1 831.5,-694.1"/>
</g>
</g>
</svg>
